#N canvas 132 149 1036 808 10;
#X declare -stdlib zexy;
#X declare -stdlib hcs;
#X declare -stdlib list-abs;
#N canvas 293 371 806 495 loader 0;
#X obj 76 116 soundfiler;
#X obj 59 -144 inlet;
#X obj 75 70 pack s s;
#X msg 221 -40 bang;
#X obj 220 -83 r loadbang1;
#X obj 28 -87 t a a b;
#X obj 201 -111 inlet;
#X obj 325 -66 loadbang;
#X obj 220 -16 symbol \$1;
#X msg 169 40 symbol \$2-\$1;
#X msg 76 94 read -resize \$1 \$2-L \$2-R;
#X obj 173 11 pack f s;
#X text 268 5 creation arg has to be a symbol so if you use \$0 it
has to be \$0-name;
#X connect 1 0 5 0;
#X connect 2 0 10 0;
#X connect 3 0 8 0;
#X connect 4 0 3 0;
#X connect 5 0 2 0;
#X connect 6 0 11 0;
#X connect 7 0 3 0;
#X connect 8 0 11 1;
#X connect 9 0 2 1;
#X connect 10 0 0 0;
#X connect 11 0 9 0;
#X restore -106 834 pd loader;
#X obj 179 293 t b b;
#X msg 262 378 bang;
#X msg 261 318 bang;
#X floatatom 742 238 5 0 0 0 - - -;
#X obj 742 216 r bus-filesnumber-\$0;
#N canvas 124 143 1147 698 maketables 0;
#X msg 581 85 bang;
#X floatatom 565 289 5 0 0 0 - - -;
#X floatatom 766 292 5 0 0 0 - - -;
#X obj 562 262 f;
#X msg 527 114 0;
#X obj 767 143 f;
#X msg 781 102 0;
#X obj 801 139 + 1;
#X msg 632 337 symbol $;
#X obj 596 258 + 20;
#X obj 591 -55 inlet;
#X obj 996 -96 inlet;
#X msg 850 -41 0;
#X obj 767 68 t b b;
#X obj 557 190 t b b;
#X msg 587 212 0;
#X obj 561 348 f;
#X msg 488 319 bang;
#X obj 943 516 outlet;
#X obj 787 569 t a a;
#X obj 949 425 spigot;
#X msg 969 292 0;
#X obj 595 -28 t b b b;
#X msg 812 495 bang;
#X obj 485 286 delay;
#X msg 481 266 bang;
#X msg 550 668 clear;
#X obj 1048 32 route 10;
#X floatatom 1005 -25 5 0 0 0 - - -;
#X obj 548 11 tgl 15 0 empty empty empty 17 7 0 10 -262144 -1 -1 0
1;
#X msg 562 -123 bang;
#X msg 552 -23 1;
#X obj 619 375 pack f s s f f;
#X obj 561 -92 delay 120;
#X obj 557 47 metro 96;
#X msg 317 -40 0;
#X obj 320 -185 r stop_\$0;
#X obj 703 282 symbol \$1;
#X msg 736 320 0;
#X obj 724 740 s pd-\$1;
#X msg 878 624 clear;
#X obj 922 581 r \$0-clear;
#X msg 712 649 obj 200 \$1 array define \$3-\$4-L;
#X msg 729 671 obj 400 \$1 array define \$3-\$4-R;
#X obj 702 226 loadbang;
#X text 922 656 <----- you could also use -k flag;
#X text 965 671 or [table] object instead;
#X connect 0 0 3 0;
#X connect 0 0 5 0;
#X connect 0 0 8 0;
#X connect 0 0 38 0;
#X connect 0 0 37 0;
#X connect 1 0 16 1;
#X connect 2 0 20 1;
#X connect 2 0 25 0;
#X connect 2 0 32 3;
#X connect 3 0 1 0;
#X connect 3 0 9 0;
#X connect 4 0 14 0;
#X connect 4 0 26 0;
#X connect 5 0 7 0;
#X connect 5 0 2 0;
#X connect 5 0 27 0;
#X connect 6 0 5 1;
#X connect 7 0 5 1;
#X connect 8 0 32 1;
#X connect 9 0 3 1;
#X connect 10 0 22 0;
#X connect 11 0 27 1;
#X connect 11 0 28 0;
#X connect 12 0 20 0;
#X connect 12 0 29 0;
#X connect 13 0 5 0;
#X connect 13 1 6 0;
#X connect 14 0 3 0;
#X connect 14 1 15 0;
#X connect 15 0 3 1;
#X connect 16 0 23 0;
#X connect 16 0 32 0;
#X connect 17 0 16 0;
#X connect 19 0 42 0;
#X connect 19 1 43 0;
#X connect 20 0 18 0;
#X connect 21 0 20 1;
#X connect 22 1 13 0;
#X connect 22 1 4 0;
#X connect 22 2 21 0;
#X connect 23 0 18 0;
#X connect 24 0 17 0;
#X connect 25 0 24 0;
#X connect 26 0 39 0;
#X connect 27 0 12 0;
#X connect 28 0 30 0;
#X connect 29 0 34 0;
#X connect 30 0 22 0;
#X connect 30 0 33 0;
#X connect 31 0 29 0;
#X connect 32 0 19 0;
#X connect 33 0 31 0;
#X connect 34 0 0 0;
#X connect 35 0 29 0;
#X connect 36 0 35 0;
#X connect 37 0 32 2;
#X connect 38 0 32 4;
#X connect 40 0 39 0;
#X connect 41 0 40 0;
#X connect 42 0 39 0;
#X connect 43 0 39 0;
#X connect 44 0 37 0;
#X restore 668 260 pd maketables;
#X obj 638 284 bng 15 250 50 0 empty empty empty 17 7 0 10 -262144
-1 -1;
#X obj 262 344 delay 100;
#X obj 699 187 s \$0_reset_1;
#X obj 876 72 s \$0_folder_;
#X msg 450 410 symbol /;
#X obj 380 469 zexy/list2symbol;
#X obj 336 555 hcs/folder_list;
#X obj 691 443 t b a b;
#X obj 708 419 r \$0_folder_;
#X obj 349 635 f;
#X obj 379 635 + 1;
#X floatatom 386 661 5 0 0 0 - - -;
#X msg 341 589 bang;
#X obj 446 590 t b b;
#X obj 448 567 r \$0_reset_1;
#X obj 471 674 s bus-filesnumber-\$0;
#X obj 169 631 route;
#X floatatom 189 606 5 0 0 0 - - -;
#X obj 189 584 r bus-filesnumber-\$0;
#X obj -55 355 metro 120;
#X msg -96 460 bang;
#X floatatom -31 577 5 0 0 0 - - -;
#X obj -34 550 f;
#X msg -33 408 0;
#X obj -39 478 t b b;
#X obj -52 309 tgl 15 0 empty empty empty 17 7 0 10 -262144 -1 -1 0
1;
#X msg -50 271 1;
#X msg -22 290 0;
#X obj 0 546 + 1;
#X obj -30 380 r \$0_reset_1;
#X obj 688 115 r \$0_folder_;
#X obj 122 669 s \$0_loaded;
#X obj 278 36 r \$0_loaded;
#X obj 279 68 bng 15 250 50 0 empty empty empty 17 7 0 10 -262144 -1
-1;
#X obj 763 616 list-abs/list-extend;
#X msg 932 603 bang;
#X msg 812 575 bang;
#X obj 921 551 t b b;
#X msg 932 510 clear;
#X floatatom -131 693 5 0 0 0 - - -;
#X obj -4 792 list-abs/list-seek;
#X msg -106 803 symbol \$1;
#X obj 330 71 outlet;
#X obj -55 903 outlet;
#X msg 1296 145 vis 1;
#X obj 1290 29 inlet;
#X obj 834 21 inlet;
#X text 1327 30 look arrays;
#X text 18 503 ???;
#X msg -9 500 0;
#X msg 466 624 0;
#X obj -76 727 t a a;
#X obj 711 4 r \$0sym_r;
#X symbolatom 722 36 10 0 0 0 - - -;
#X obj -308 152 outlet making tables;
#X obj 662 144 t a b b b;
#X floatatom 13 767 5 0 0 0 - - -;
#X obj -25 750 - 1;
#X msg -98 274 0;
#X obj -129 215 loadbang;
#X text 219 343 ¿¿¿¿¿¿;
#X obj -78 671 pipe 30;
#X obj -19 145 r stop_\$0;
#X obj 1340 125 s stop_\$0;
#X obj 27 172 delay 10;
#X obj 1407 141 s \$0_reset_1;
#X obj 1270 98 route look stop reset clear;
#X obj 1423 184 s \$0-clear;
#X obj 1298 180 s pd-\$1;
#X msg 697 468 \$1/*;
#X text 758 493 <--- or define filetype;
#X msg 697 494 \$1/*.wav;
#N canvas 0 50 859 479 \$1 0;
#X restore 213 140 pd \$1;
#X text 268 142 <--- subpatch for the arrays to go;
#X obj 493 43 declare -stdlib zexy;
#X obj 493 61 declare -stdlib hcs;
#X obj 493 80 declare -stdlib list-abs;
#X connect 1 0 33 0;
#X connect 2 0 1 0;
#X connect 3 0 8 0;
#X connect 4 0 6 1;
#X connect 5 0 4 0;
#X connect 6 0 7 0;
#X connect 7 0 3 0;
#X connect 7 0 61 0;
#X connect 8 0 2 0;
#X connect 11 0 12 1;
#X connect 12 0 13 1;
#X connect 13 0 19 0;
#X connect 13 0 41 0;
#X connect 14 0 13 0;
#X connect 14 1 76 0;
#X connect 14 2 11 0;
#X connect 15 0 14 0;
#X connect 16 0 17 0;
#X connect 16 0 18 0;
#X connect 17 0 16 1;
#X connect 18 0 22 0;
#X connect 19 0 16 0;
#X connect 20 0 19 0;
#X connect 20 1 57 0;
#X connect 21 0 20 0;
#X connect 23 0 34 0;
#X connect 23 0 38 0;
#X connect 24 0 23 1;
#X connect 25 0 24 0;
#X connect 26 0 27 0;
#X connect 27 0 29 0;
#X connect 28 0 23 0;
#X connect 28 0 68 0;
#X connect 29 0 28 0;
#X connect 29 0 35 0;
#X connect 30 0 31 0;
#X connect 31 0 29 0;
#X connect 31 1 56 0;
#X connect 32 0 26 0;
#X connect 33 0 32 0;
#X connect 34 0 32 0;
#X connect 35 0 29 1;
#X connect 36 0 30 0;
#X connect 37 0 62 0;
#X connect 39 0 40 0;
#X connect 39 0 49 0;
#X connect 41 0 47 1;
#X connect 42 0 41 1;
#X connect 43 0 41 0;
#X connect 44 0 43 0;
#X connect 44 1 42 0;
#X connect 45 0 44 0;
#X connect 46 0 50 0;
#X connect 46 0 58 0;
#X connect 47 0 48 0;
#X connect 48 0 0 0;
#X connect 51 0 75 0;
#X connect 52 0 73 0;
#X connect 53 0 10 0;
#X connect 56 0 29 1;
#X connect 57 0 16 1;
#X connect 58 0 64 0;
#X connect 58 1 0 1;
#X connect 59 0 60 0;
#X connect 59 0 10 0;
#X connect 62 1 45 0;
#X connect 62 3 9 0;
#X connect 63 0 47 0;
#X connect 64 0 47 0;
#X connect 65 0 32 0;
#X connect 66 0 65 0;
#X connect 68 0 46 0;
#X connect 69 0 71 0;
#X connect 71 0 34 0;
#X connect 73 0 51 0;
#X connect 73 1 70 0;
#X connect 73 2 72 0;
#X connect 73 3 74 0;
#X connect 76 0 12 0;
#X connect 78 0 12 0;
