#N canvas 111 104 1042 794 10;
#X obj 372 65 bng 15 250 50 0 empty empty empty 17 7 0 10 -262144 -1
-1;
#X floatatom 416 390 5 0 0 0 - - -;
#X obj 447 362 bng 15 250 50 0 empty empty empty 17 7 0 10 -262144
-1 -1;
#X text 465 363 loaded;
#X text 368 388 loading;
#X text 390 64 choose folder;
#X obj 366 358 bng 15 250 50 0 empty empty empty 17 7 0 10 -262144
-1 -1;
#X obj 372 86 tof/folderpanel;
#X text 249 358 making tables --->;
#X text 349 735 hcs/folder_list list-abs/list-extend list-abs/list-seek
zexy/list2symbol;
#X text 349 720 uses:;
#X msg 527 177 look;
#X msg 545 198 stop;
#X msg 578 240 clear;
#X obj 417 408 s number-of-arrays;
#N canvas 171 197 948 703 play-array 0;
#X obj 295 431 tabplay~;
#X obj 396 433 tabplay~;
#X obj 352 494 dac~;
#X obj 325 311 delay 1;
#X obj 283 373 t b b;
#X obj 381 223 mod;
#X obj 401 202 + 1;
#X msg 299 405 set name-\$1-L;
#X msg 395 406 set name-\$1-R;
#X obj 401 182 r number-of-arrays;
#X obj 363 153 inlet;
#X obj 355 275 t b f;
#X obj 396 358 t f f;
#X text 500 408 <------ subpatch name - array number - Left Right stereo.
;
#X obj 381 243 + 1;
#X connect 0 0 2 0;
#X connect 1 0 2 1;
#X connect 3 0 4 0;
#X connect 4 0 0 0;
#X connect 4 1 1 0;
#X connect 5 0 14 0;
#X connect 6 0 5 1;
#X connect 7 0 0 0;
#X connect 8 0 1 0;
#X connect 9 0 6 0;
#X connect 10 0 5 0;
#X connect 11 0 3 0;
#X connect 11 1 12 0;
#X connect 12 0 7 0;
#X connect 12 1 8 0;
#X connect 14 0 11 0;
#X restore 384 673 pd play-array;
#X obj 384 653 hradio 15 1 0 30 empty empty empty 0 -8 0 10 -262144
-1 -1 12;
#X msg 383 113 symbol path/to/folder;
#X obj 384 634 random 30;
#X obj 384 613 metro 220;
#X obj 384 595 tgl 15 0 empty empty empty 17 7 0 10 -262144 -1 -1 0
1;
#X text 90 79 based on a patch by hardoff.;
#X text 384 26 load a folder of audio files into dynamically created
arrays;
#X obj 372 335 arrays name;
#X text 452 336 <---- creation argument to set subpatch/name for arrays.
;
#X connect 0 0 7 0;
#X connect 1 0 14 0;
#X connect 7 0 23 0;
#X connect 11 0 23 1;
#X connect 12 0 23 1;
#X connect 13 0 23 1;
#X connect 16 0 15 0;
#X connect 17 0 23 0;
#X connect 18 0 16 0;
#X connect 19 0 18 0;
#X connect 20 0 19 0;
#X connect 23 0 6 0;
#X connect 23 1 1 0;
#X connect 23 2 2 0;
