#N canvas 0 50 1278 956 10;
#X symbolatom 41 -133 10 0 0 0 - - -, f 10;
#X obj 36 -63 t b a;
#X msg 59 38 Control_L;
#X msg 65 -32 set \$1;
#X msg 285 -133 bang;
#X obj 297 -69 bng 15 250 50 0 empty empty empty 17 7 0 10 -262144
-1 -1;
#X obj 285 -163 route ??;
#X obj 283 -101 delay 40;
#X msg 184 -161 symbol Shift_L;
#X obj 330 -140 route ISO_Next_Group;
#X obj -8 521 tgl 20 0 empty empty empty 0 -6 0 8 -84972 -1 -1 0 1
;
#N canvas 207 164 828 667 filterbang 0;
#X obj 124 327 * 20;
#X obj 125 376 delay;
#X obj 124 400 f;
#X obj 128 258 t f f;
#X obj 76 255 t f f;
#X obj 65 364 change;
#X obj 87 489 outlet;
#X msg 66 427 1;
#X msg 127 453 0;
#X msg 255 333 5.55556e+06;
#X obj 255 310 loadbang;
#X obj 68 398 sel 1;
#X msg 66 296 1;
#X obj 125 428 sel 1;
#X msg 75 226 0;
#X msg 131 225 1;
#X obj 111 62 inlet;
#X obj 220 107 route 0;
#X text 476 346 thanks matt davey;
#X connect 0 0 1 0;
#X connect 1 0 2 0;
#X connect 2 0 13 0;
#X connect 3 0 0 0;
#X connect 3 1 2 1;
#X connect 4 0 1 0;
#X connect 4 0 12 0;
#X connect 4 1 2 1;
#X connect 5 0 11 0;
#X connect 7 0 6 0;
#X connect 8 0 5 0;
#X connect 8 0 6 0;
#X connect 9 0 5 0;
#X connect 10 0 9 0;
#X connect 11 0 7 0;
#X connect 12 0 5 0;
#X connect 13 0 8 0;
#X connect 14 0 4 0;
#X connect 15 0 3 0;
#X connect 16 0 17 0;
#X connect 17 0 15 0;
#X connect 17 1 14 0;
#X restore 36 714 pd filterbang;
#N canvas 345 147 828 667 filterbang 0;
#X obj 124 327 * 20;
#X obj 125 376 delay;
#X obj 124 400 f;
#X obj 128 258 t f f;
#X obj 76 255 t f f;
#X obj 65 364 change;
#X obj 87 489 outlet;
#X msg 66 427 1;
#X msg 127 453 0;
#X msg 255 333 5.55556e+06;
#X obj 255 310 loadbang;
#X obj 68 398 sel 1;
#X msg 66 296 1;
#X obj 125 428 sel 1;
#X msg 75 226 0;
#X msg 131 225 1;
#X obj 111 62 inlet;
#X obj 220 107 route 0;
#X text 476 346 thanks matt davey;
#X connect 0 0 1 0;
#X connect 1 0 2 0;
#X connect 2 0 13 0;
#X connect 3 0 0 0;
#X connect 3 1 2 1;
#X connect 4 0 1 0;
#X connect 4 0 12 0;
#X connect 4 1 2 1;
#X connect 5 0 11 0;
#X connect 7 0 6 0;
#X connect 8 0 5 0;
#X connect 8 0 6 0;
#X connect 9 0 5 0;
#X connect 10 0 9 0;
#X connect 11 0 7 0;
#X connect 12 0 5 0;
#X connect 13 0 8 0;
#X connect 14 0 4 0;
#X connect 15 0 3 0;
#X connect 16 0 17 0;
#X connect 17 0 15 0;
#X connect 17 1 14 0;
#X restore 41 783 pd filterbang;
#X obj 24 663 int;
#N canvas 390 140 828 667 filterbang 0;
#X obj 124 327 * 20;
#X obj 125 376 delay;
#X obj 124 400 f;
#X obj 128 258 t f f;
#X obj 76 255 t f f;
#X obj 65 364 change;
#X obj 87 489 outlet;
#X msg 66 427 1;
#X msg 127 453 0;
#X msg 255 333 5.55556e+06;
#X obj 255 310 loadbang;
#X obj 68 398 sel 1;
#X msg 66 296 1;
#X obj 125 428 sel 1;
#X msg 75 226 0;
#X msg 131 225 1;
#X obj 111 62 inlet;
#X obj 220 107 route 0;
#X text 476 346 thanks matt davey;
#X connect 0 0 1 0;
#X connect 1 0 2 0;
#X connect 2 0 13 0;
#X connect 3 0 0 0;
#X connect 3 1 2 1;
#X connect 4 0 1 0;
#X connect 4 0 12 0;
#X connect 4 1 2 1;
#X connect 5 0 11 0;
#X connect 7 0 6 0;
#X connect 8 0 5 0;
#X connect 8 0 6 0;
#X connect 9 0 5 0;
#X connect 10 0 9 0;
#X connect 11 0 7 0;
#X connect 12 0 5 0;
#X connect 13 0 8 0;
#X connect 14 0 4 0;
#X connect 15 0 3 0;
#X connect 16 0 17 0;
#X connect 17 0 15 0;
#X connect 17 1 14 0;
#X restore 41 806 pd filterbang;
#X obj 38 738 tgl 15 0 empty empty empty 17 7 0 10 -262144 -1 -1 0
1;
#X obj 38 758 int;
#X obj 6 400 t a;
#X obj 212 824 route 1;
#X msg 210 845 bang;
#X obj 263 840 tgl 15 0 empty empty empty 17 7 0 10 -262144 -1 -1 0
1;
#X obj 312 912 outlet;
#X obj 101 339 inlet;
#X obj 345 765 float \$2;
#X obj 343 738 loadbang;
#X obj 444 660 inlet;
#X obj 359 820 spigot;
#X obj 440 807 -;
#X obj 38 854 spigot;
#X obj 35 878 tgl 15 0 empty empty empty 17 7 0 10 -262144 -1 -1 0
1;
#X msg 439 788 \$1 1;
#X obj -4 451 route \$1;
#X obj -66 -331 keyname;
#X obj 100 -264 spigot;
#X obj 160 -301 loadbang;
#X msg 161 -275 1;
#X obj 264 -264 r keyboard-on;
#N canvas 0 50 450 300 vsymbol2float 0;
#X obj 30 85 list fromsymbol;
#X obj 61 246 < 58;
#X obj 30 272 &&;
#X obj 49 456 symbol;
#X obj 30 298 sel 0 1;
#X obj 30 215 t f f f, f 9;
#X obj 49 327 f;
#X obj 49 349 sel 47 46;
#X obj 49 431 bang;
#X obj 74 374 f;
#X obj 101 374 + 1;
#N canvas 65 87 662 518 list-rdrip 0;
#X obj 123 97 t a a;
#X obj 123 254 spigot;
#X obj 162 162 bang;
#X obj 162 181 1;
#X obj 283 162 route bang;
#X obj 243 163 bang;
#X obj 243 182 0;
#X obj 162 127 list split 2;
#X obj 48 387 list split;
#X obj 115 339 list length;
#X obj 115 364 >> 1;
#X obj 91 32 inlet;
#X obj 350 428 outlet;
#X obj 407 428 outlet;
#X text 462 430 signal end of list;
#X obj 123 273 t a a;
#X text 155 29 Copyright 2009 by Mathieu Bouchard/Frank Barknecht;
#X obj 48 419 spigot;
#X obj 91 66 t b a b;
#X obj 219 68 inlet;
#X obj 407 404 spigot;
#X obj 177 103 1;
#X obj 219 102 0;
#X text 261 69 stop;
#X connect 0 0 1 0;
#X connect 0 1 7 0;
#X connect 1 0 15 0;
#X connect 2 0 3 0;
#X connect 3 0 1 1;
#X connect 4 1 12 0;
#X connect 5 0 6 0;
#X connect 6 0 1 1;
#X connect 7 0 2 0;
#X connect 7 2 4 0;
#X connect 7 2 5 0;
#X connect 8 0 17 0;
#X connect 8 1 17 0;
#X connect 9 0 10 0;
#X connect 10 0 8 1;
#X connect 11 0 18 0;
#X connect 15 0 8 0;
#X connect 15 1 9 0;
#X connect 17 0 0 0;
#X connect 18 0 20 0;
#X connect 18 1 0 0;
#X connect 18 2 21 0;
#X connect 19 0 22 0;
#X connect 20 0 13 0;
#X connect 21 0 17 1;
#X connect 21 0 20 1;
#X connect 22 0 17 1;
#X connect 22 0 20 1;
#X restore 30 184 pd list-rdrip;
#X obj 30 246 > 45;
#X obj 30 106 route 45;
#X obj 165 560 list prepend;
#X obj 30 132 t a b;
#X obj 57 154 f 1;
#X obj 75 132 t a b;
#X obj 102 153 f 0;
#X obj 165 582 route 0 1;
#X obj 190 607 * -1;
#X obj 213 389 f;
#X obj 238 389 + 1;
#X obj 153 389 - 48;
#X obj 153 456 *;
#X obj 183 415 pow;
#X obj 153 366 t f b b;
#X obj 153 484 +;
#X obj 153 512 t f f;
#X obj 228 366 t f f b;
#X obj 74 399 sel 1 0;
#X obj 93 431 f;
#X obj 93 484 /;
#X obj 108 455 * 10;
#X obj 165 536 f;
#X obj 30 59 t s s b;
#X obj 89 327 f 0;
#X obj 93 512 t b f;
#X obj 93 536 f 0;
#X obj 49 655 outlet;
#X obj 183 389 f 10;
#X obj 30 33 symbol;
#X obj 30 8 inlet;
#X connect 0 0 13 0;
#X connect 1 0 2 1;
#X connect 2 0 4 0;
#X connect 3 0 39 0;
#X connect 4 0 8 0;
#X connect 4 1 6 0;
#X connect 5 0 12 0;
#X connect 5 1 1 0;
#X connect 5 2 6 1;
#X connect 6 0 7 0;
#X connect 7 0 8 0;
#X connect 7 1 9 0;
#X connect 7 2 26 0;
#X connect 8 0 3 0;
#X connect 8 0 11 1;
#X connect 8 0 37 0;
#X connect 9 0 10 0;
#X connect 9 0 30 0;
#X connect 10 0 9 1;
#X connect 11 0 5 0;
#X connect 11 1 29 0;
#X connect 12 0 2 0;
#X connect 13 0 15 0;
#X connect 13 1 17 0;
#X connect 14 0 19 0;
#X connect 15 0 11 0;
#X connect 15 1 16 0;
#X connect 16 0 14 1;
#X connect 17 0 11 0;
#X connect 17 1 18 0;
#X connect 18 0 14 1;
#X connect 19 0 39 0;
#X connect 19 1 20 0;
#X connect 20 0 39 0;
#X connect 21 0 22 0;
#X connect 21 0 25 1;
#X connect 22 0 21 1;
#X connect 23 0 24 0;
#X connect 24 0 27 0;
#X connect 25 0 24 1;
#X connect 25 0 33 0;
#X connect 26 0 23 0;
#X connect 26 1 40 0;
#X connect 26 2 21 0;
#X connect 27 0 28 0;
#X connect 28 0 27 1;
#X connect 28 1 31 1;
#X connect 28 1 34 1;
#X connect 29 0 21 1;
#X connect 29 1 27 1;
#X connect 29 2 34 0;
#X connect 30 0 8 0;
#X connect 30 1 31 0;
#X connect 31 0 32 0;
#X connect 32 0 37 0;
#X connect 33 0 32 1;
#X connect 34 0 14 0;
#X connect 35 0 0 0;
#X connect 35 1 3 1;
#X connect 35 2 36 0;
#X connect 36 0 9 1;
#X connect 37 0 38 0;
#X connect 37 1 27 1;
#X connect 38 0 21 1;
#X connect 40 0 25 0;
#X connect 41 0 35 0;
#X connect 42 0 41 0;
#X restore 160 151 pd vsymbol2float;
#X connect 0 0 1 0;
#X connect 1 0 2 0;
#X connect 1 1 3 0;
#X connect 2 0 6 0;
#X connect 2 0 17 0;
#X connect 2 0 37 0;
#X connect 3 0 2 0;
#X connect 4 0 7 0;
#X connect 5 0 8 0;
#X connect 6 0 4 0;
#X connect 6 1 9 0;
#X connect 7 0 5 0;
#X connect 8 0 0 0;
#X connect 9 0 4 0;
#X connect 10 0 13 0;
#X connect 11 0 15 0;
#X connect 12 0 14 0;
#X connect 13 0 11 0;
#X connect 14 0 18 0;
#X connect 14 0 28 0;
#X connect 15 0 16 0;
#X connect 16 0 12 0;
#X connect 17 0 31 0;
#X connect 18 0 19 0;
#X connect 19 0 20 0;
#X connect 20 0 26 0;
#X connect 22 0 31 1;
#X connect 23 0 30 0;
#X connect 23 0 28 1;
#X connect 24 0 23 0;
#X connect 25 0 30 0;
#X connect 25 0 28 1;
#X connect 26 0 21 0;
#X connect 27 0 26 1;
#X connect 28 0 29 0;
#X connect 29 0 21 0;
#X connect 30 0 27 0;
#X connect 31 0 10 0;
#X connect 32 1 33 0;
#X connect 33 0 0 0;
#X connect 34 0 35 0;
#X connect 35 0 33 1;
#X connect 36 0 33 1;
#X connect 37 0 17 0;
