#N canvas 2 120 1280 931 10;
#X declare -stdlib zexy;
#X obj -84 135 inlet~;
#N canvas 619 244 345 371 \$0-gui 0;
#N canvas -72 95 1280 931 \$0-4track-stereo 0;
#X obj 142 142 vsl 25 50 0 1 0 0 empty empty empty 0 -9 0 10 -38759
-220926 -1 4900 1;
#X obj 142 199 tgl 25 0 empty empty rec 1 12 0 10 -173076 -261761 -163128
0 1;
#X text 43 129 on;
#X obj 142 229 tgl 25 0 empty \$0-playtrack1 play 2 12 0 10 -31275
-261761 -199989 0 1;
#X obj 172 142 vsl 25 50 0 1 0 0 empty empty empty 0 -9 0 10 -38759
-220926 -1 4900 1;
#X obj 172 199 tgl 25 0 empty empty rec 1 12 0 10 -173076 -261761 -163128
0 1;
#X obj 172 229 tgl 25 0 empty \$0-playtrack2 play 2 12 0 10 -31275
-261761 -199989 0 1;
#X obj 202 142 vsl 25 50 0 1 0 0 empty empty empty 0 -9 0 10 -38759
-220926 -1 4900 1;
#X obj 202 199 tgl 25 0 empty empty rec 1 12 0 10 -173076 -261761 -163128
0 1;
#X obj 202 229 tgl 25 0 empty \$0-playtrack3 play 2 12 0 10 -31275
-261761 -199989 0 1;
#X obj 232 142 vsl 25 50 0 1 0 0 empty empty empty 0 -9 0 10 -38759
-220926 -1 4900 1;
#X obj 232 199 tgl 25 0 empty empty rec 1 12 0 10 -173076 -261761 -163128
0 1;
#X obj 232 229 tgl 25 0 empty \$0-playtrack4 play 2 12 0 10 -31275
-261761 -199989 0 1;
#X text 45 233 play->;
#X text 108 204 rec->;
#X text 108 179 vol->;
#X obj 176 766 tgl 15 0 empty empty empty 17 7 0 10 -262144 -1 -1 0
1;
#X obj 201 767 tgl 15 0 empty empty empty 17 7 0 10 -262144 -1 -1 0
1;
#X obj 226 766 tgl 15 0 empty empty empty 17 7 0 10 -262144 -1 -1 0
1;
#X obj 250 767 tgl 15 0 empty empty empty 17 7 0 10 -262144 -1 -1 0
1;
#X obj 110 229 tgl 25 0 empty empty play 2 12 0 10 -31275 -261761 -199989
0 1;
#X text 18 141 mute solo--<;
#X obj -261 79 t f f f f;
#X obj -303 55 tgl 25 0 empty empty rec 1 12 0 10 -173076 -261761 -163128
0 1;
#X obj 379 -202 loadbang;
#X msg 379 -182 1;
#X obj 519 127 s new_\$0;
#X obj 234 109 bng 25 250 50 0 empty empty empty 17 7 0 10 -46753 -92784
-1;
#X text 151 112 new tape---->;
#X obj 612 194 s \$0_track_number_;
#X msg 568 156 1;
#X msg 568 176 2;
#X msg 568 200 3;
#X msg 568 220 4;
#X obj 516 154 route 0;
#X obj 516 173 route 0;
#X obj 516 194 route 0;
#X obj 516 213 route 0;
#X obj 151 -17 t f f f f;
#X obj -290 449 s to-volume2_\$0;
#X obj -290 469 s to-volume3_\$0;
#X obj -291 490 s to-volume4_\$0;
#X obj -289 428 s to-volume1_\$0;
#N canvas 0 182 1115 702 record 0;
#X obj 317 489 sel 1 0;
#X obj 454 469 sel 1 0;
#X obj 610 461 sel 1 0;
#X obj 733 470 sel 1 0;
#X obj 466 423 inlet;
#X obj 348 437 inlet;
#X obj 761 400 inlet;
#X obj 643 414 inlet;
#X obj 339 520 s \$0-stop_rec_track1;
#X obj 317 541 s \$0-recording_track1;
#X obj 473 493 s \$0-stop_rec_track2;
#X obj 454 521 s \$0-recording_track2;
#X obj 629 485 s \$0-stop_rec_track3;
#X obj 610 513 s \$0-recording_track3;
#X obj 733 522 s \$0-recording_track4;
#X obj 752 494 s \$0-stop_rec_track4;
#X connect 0 0 9 0;
#X connect 0 1 8 0;
#X connect 1 0 11 0;
#X connect 1 1 10 0;
#X connect 2 0 13 0;
#X connect 2 1 12 0;
#X connect 3 0 14 0;
#X connect 3 1 15 0;
#X connect 4 0 1 0;
#X connect 5 0 0 0;
#X connect 6 0 3 0;
#X connect 7 0 2 0;
#X restore 172 801 pd record;
#N canvas 88 201 1115 702 play 0;
#X obj 317 489 sel 1 0;
#X obj 474 472 sel 1 0;
#X obj 664 463 sel 1 0;
#X obj 842 474 sel 1 0;
#X obj 466 423 inlet;
#X obj 348 437 inlet;
#X obj 815 402 inlet;
#X obj 697 416 inlet;
#X obj 336 513 s \$0-stop_play_track1;
#X obj 317 541 s \$0-play_track1;
#X obj 474 524 s \$0-play_track2;
#X obj 493 496 s \$0-stop_play_track2;
#X obj 664 515 s \$0-play_track3;
#X obj 683 487 s \$0-stop_play_track3;
#X obj 842 526 s \$0-play_track4;
#X obj 861 498 s \$0-stop_play_track4;
#X obj 360 462 s \$0-player1;
#X obj 550 434 s \$0-player2;
#X obj 720 442 s \$0-player3;
#X obj 861 431 s \$0-player4;
#X obj 434 608 s \$0-playtrack1;
#X obj 545 606 s \$0-playtrack2;
#X obj 691 613 s \$0-playtrack3;
#X obj 802 611 s \$0-playtrack4, f 11;
#X connect 0 0 9 0;
#X connect 0 1 8 0;
#X connect 1 0 10 0;
#X connect 1 1 11 0;
#X connect 2 0 12 0;
#X connect 2 1 13 0;
#X connect 3 0 14 0;
#X connect 3 1 15 0;
#X connect 4 0 1 0;
#X connect 4 0 17 0;
#X connect 5 0 0 0;
#X connect 5 0 16 0;
#X connect 6 0 3 0;
#X connect 6 0 19 0;
#X connect 7 0 2 0;
#X connect 7 0 18 0;
#X restore -242 318 pd play;
#X obj 108 141 tgl 25 0 empty \$0-input_monitor ON 0 12 0 15 -213633
-222209 -261951 1 1;
#X msg -89 62 1 \$1;
#X obj -89 87 -;
#X obj 733 710 r \$0_track_4_recorded;
#X obj 680 652 r \$0_track_1_recorded;
#X obj 699 671 r \$0_track_2_recorded;
#X obj 714 691 r \$0_track_3_recorded;
#X obj 142 258 cnv 10 25 10 empty \$0_trk1_r empty 20 12 0 14 -262144
-262144 0;
#X obj 172 258 cnv 10 25 10 empty \$0_trk2_r empty 20 12 0 14 -262144
-262144 0;
#X obj 202 258 cnv 10 25 10 empty \$0_trk3_r empty 20 12 0 14 -262144
-262144 0;
#X obj 231 258 cnv 10 25 10 empty \$0_trk4_r empty 20 12 0 14 -262144
-262144 0;
#X msg 622 955 color \$1;
#X obj 617 978 s \$0_trk1_r;
#X msg 553 909 6822;
#X msg 620 913 0;
#X obj 687 859 loadbang;
#X obj 695 889 t b b b b;
#X msg 702 955 color \$1;
#X msg 702 916 0;
#X obj 697 978 s \$0_trk2_r;
#X msg 775 955 color \$1;
#X msg 855 955 color \$1;
#X msg 781 918 0;
#X msg 863 921 0;
#X obj 770 978 s \$0_trk3_r;
#X obj 850 978 s \$0_trk4_r;
#X msg 664 915 6822;
#X msg 744 919 6822;
#X msg 824 922 6822;
#X symbolatom 480 368 25 0 0 0 - - -;
#X obj 541 66 r _file_name_\$0;
#X obj 278 3 r \$0symbolr;
#X obj 109 870 tgl 15 0 empty empty empty 0 -6 0 8 -262144 -1 -1 0
1;
#X floatatom 167 872 5 0 0 0 - - -;
#X obj 109 893 metro 1000;
#X obj 110 973 f;
#X obj 149 973 + 1;
#X floatatom 109 1003 5 0 0 0 - - -;
#X msg 174 939 0;
#X msg 132 833 bang;
#X msg 172 916 bang;
#X obj 34 771 route 0 1;
#X obj 52 815 delay 1000;
#X obj 275 833 t a;
#X obj 215 994 s \$0-record-time;
#X floatatom 263 253 5 0 0 0 - - -;
#X obj 342 279 r \$0-record-time;
#X obj 113 279 cnv 15 182 59 empty empty empty 20 12 0 14 -130614 -66577
0;
#X obj 112 336 cnv 15 100 15 empty empty empty 20 12 0 14 -200244 -66577
0;
#X obj 116 287 tgl 25 0 empty empty empty 2 12 0 10 -31296 -261761
-200704 0 1;
#X text 126 269 loop;
#X obj 115 390 s \$0-loop-track1;
#X obj 147 287 tgl 25 0 empty empty empty 2 12 0 10 -31296 -261761
-200704 0 1;
#X obj 177 287 tgl 25 0 empty empty empty 2 12 0 10 -31296 -261761
-200704 0 1;
#X obj 206 287 tgl 25 0 empty empty empty 2 12 0 10 -31296 -261761
-200704 0 1;
#X obj 348 4 r \$0_data;
#X obj 346 30 route rec1 rec2 rec3 rec4;
#X obj 624 15 route play1 play2 play3 play4;
#X obj 348 97 route loop1 loop2 loop3 loop4;
#X obj 128 408 s \$0-loop-track2;
#X obj 143 426 s \$0-loop-track3;
#X obj 156 444 s \$0-loop-track4;
#X obj 508 557 loadbang;
#X obj 369 243 s \$0-new_tape!;
#X obj 831 838 r \$0-new_tape!;
#X obj 476 661 \$0;
#X obj 439 694 pack f f;
#X obj 263 209 tgl 25 0 empty empty empty 2 12 0 10 -31296 -261761
-200704 0 1;
#X obj 25 407 t f f f f;
#X obj 9 442 spigot;
#X obj 26 493 spigot;
#X obj 47 549 spigot;
#X obj 64 600 spigot;
#X obj 3 469 == 0;
#X obj 20 520 == 0;
#X obj 41 576 == 0;
#X obj 58 627 == 0;
#X text 291 213 auto;
#X obj -215 171 t f f f f;
#X obj -225 205 spigot;
#X obj -213 224 spigot;
#X obj -197 243 spigot;
#X obj -179 261 spigot;
#X msg -109 193 1 \$1;
#X obj -108 214 - 1;
#X text 290 224 loop;
#X text 294 235 mode;
#X obj 426 317 s \$0-delay_recording;
#X obj 263 140 nbx 5 14 -1e+37 1e+37 0 1 empty empty empty 0 -8 0 10
-262144 -1 -1 1 256;
#X text 261 153 delay rec;
#X obj 116 315 bng 25 250 50 0 empty empty empty 17 7 0 10 -262103
-92784 -1;
#X msg 308 632 1;
#X msg 339 632 2;
#X obj 147 315 bng 25 250 50 0 empty empty empty 17 7 0 10 -262103
-92784 -1;
#X msg 370 634 3;
#X msg 401 634 4;
#X obj 177 315 bng 25 250 50 0 empty empty empty 17 7 0 10 -262103
-92784 -1;
#X obj 206 315 bng 25 250 50 0 empty empty empty 17 7 0 10 -262103
-92784 -1;
#X text 235 319 <--- arm;
#X floatatom 291 367 5 0 0 0 - - -;
#X obj 142 524 s \$0-new_track_1;
#X obj 156 545 s \$0-new_track_2;
#X obj 168 564 s \$0-new_track_3;
#X obj 182 585 s \$0-new_track_4;
#X obj 139 489 sel 1;
#X obj 171 489 sel 1;
#X obj 203 489 sel 1;
#X obj 235 489 sel 1;
#X msg 356 386 0;
#X obj 315 -64 loadbang;
#X floatatom 58 656 5 0 0 0 - - -;
#X obj -72 428 loadbang;
#X obj 362 168 s new_canvas;
#X text 274 292 1 2 3 4;
#X obj 872 890 delay 10;
#X obj 123 361 hsl 128 15 0.99 1 0 1 empty empty empty -2 -8 0 10 -72307
-260960 -1 0 0;
#X obj 314 424 s \$0-smoother;
#X text 159 360 <----- smoother;
#X obj 166 -209 line~;
#X obj 160 -231 pack 0 40;
#X obj -191 -220 *~;
#X obj 66 106 t a;
#X text 105 125 input;
#X obj 1294 54 declare -stdlib zexy;
#X obj 235 287 bng 25 250 50 0 empty empty empty 17 7 0 10 -79977 -261401
-1;
#X obj 351 491 s \$0-sink_track;
#X msg 357 462 bang;
#X obj 746 226 r \$0_data;
#X obj 399 395 loadbang;
#X msg -309 367 label \$1;
#X obj -297 388 s \$0-input_monitor;
#X obj -165 320 route 0 1;
#X msg -232 357 symbol ON;
#X msg -309 346 symbol OFF;
#N canvas 0 50 1094 847 \$0-new 0;
#X floatatom 225 334 0 0 0 0 - - -;
#X floatatom 213 358 0 0 0 0 - - -;
#X floatatom 202 385 0 0 0 0 - - -;
#X floatatom 275 294 0 0 0 0 - - -;
#X floatatom 263 318 0 0 0 0 - - -;
#X floatatom 252 345 0 0 0 0 - - -;
#X obj 223 141 t b b;
#X obj 180 190 zexy/date;
#X obj 253 185 zexy/time;
#X obj 371 183 loadbang;
#X obj 348 213 bng 15 250 50 0 empty empty empty 17 7 0 10 -262144
-1 -1;
#X obj 347 156 r new_\$0;
#X obj 343 511 s _file_name_\$0;
#X text 456 509 <---- make file name;
#X obj 351 549 s save_file_name_\$0;
#X obj 332 392 \$0;
#X msg 330 369 bang;
#X obj 199 432 pack f f f f f f f;
#X obj 329 348 loadbang;
#X obj 199 464 zexy/list2symbol -;
#X connect 0 0 17 2;
#X connect 1 0 17 1;
#X connect 2 0 17 0;
#X connect 3 0 17 5;
#X connect 4 0 17 4;
#X connect 5 0 17 3;
#X connect 6 0 7 0;
#X connect 6 1 8 0;
#X connect 7 0 2 0;
#X connect 7 1 1 0;
#X connect 7 2 0 0;
#X connect 8 0 5 0;
#X connect 8 1 4 0;
#X connect 8 2 3 0;
#X connect 9 0 10 0;
#X connect 10 0 6 0;
#X connect 11 0 10 0;
#X connect 15 0 17 6;
#X connect 16 0 15 0;
#X connect 17 0 19 0;
#X connect 18 0 16 0;
#X connect 19 0 12 0;
#X connect 19 0 14 0;
#X restore 938 -45 pd \$0-new;
#X obj 539 343 route ready1 ready2 ready3 ready4;
#X obj 356 -233 r \$0_data;
#X obj 301 311 tgl 15 0 empty empty empty 17 7 0 10 -262144 -1 -1 0
1;
#X obj 567 297 s \$0-sink-to-track1;
#X obj 967 361 spigot;
#X obj 866 332 r \$0-sink-to-track1;
#X obj 116 344 cnv 10 25 10 empty \$0_arm_trk1 empty 20 12 0 14 -66577
-262144 0;
#X msg 412 1221 color \$1;
#X msg 410 1179 0;
#X obj 407 1244 s \$0_arm_trk1;
#X msg 343 1175 17822;
#X obj 377 1120 t a;
#X obj 147 344 cnv 10 25 10 empty \$0_arm_trk2 empty 20 12 0 14 -262144
-262144 0;
#X obj 177 344 cnv 10 25 10 empty \$0_arm_trk3 empty 20 12 0 14 -262144
-262144 0;
#X obj 205 344 cnv 10 25 10 empty \$0_arm_trk4 empty 20 12 0 14 -262144
-262144 0;
#X msg 347 1080 bang;
#X msg 539 1230 color \$1;
#X msg 537 1188 0;
#X msg 470 1184 17822;
#X obj 504 1129 t a;
#X msg 474 1089 bang;
#X msg 656 1223 color \$1;
#X msg 654 1181 0;
#X msg 587 1177 17822;
#X obj 621 1122 t a;
#X msg 591 1082 bang;
#X msg 783 1232 color \$1;
#X msg 781 1190 0;
#X msg 714 1186 17822;
#X obj 748 1131 t a;
#X msg 718 1091 bang;
#X obj 534 1253 s \$0_arm_trk2;
#X obj 651 1246 s \$0_arm_trk3;
#X obj 779 1255 s \$0_arm_trk4;
#X text -298 315 comment;
#X obj 698 100 r \$0_data;
#X text 295 324 sync;
#X text 260 335 to track 1;
#X obj 405 361 route 1;
#X obj 202 -188 route play;
#X obj 622 -9 r \$0_data;
#X obj 654 322 r \$0_data;
#X obj 701 128 route loop sync;
#X obj 744 246 route sbang;
#X obj 1062 323 throw~ \$0-4track_mix_L2;
#X obj 1092 347 throw~ \$0-4track_mix_R2;
#X obj 1256 346 throw~ \$0-4track_mix_L3;
#X obj 1286 370 throw~ \$0-4track_mix_R3;
#X obj 1417 397 throw~ \$0-4track_mix_L4;
#X obj 1447 421 throw~ \$0-4track_mix_R4;
#X obj 838 -645 r \$0_track_number_;
#X obj 999 -637 loadbang;
#X obj 903 -582 \$0;
#X obj 897 -561 pack f f;
#X obj 550 -472 *~ 1;
#X obj 962 54 catch~ \$0-track_1_R;
#X obj 626 -447 throw~;
#X obj 677 -453 throw~;
#X obj 517 -472 *~ 1;
#X obj -229 -300 catch~ \$0-input_L;
#X obj 18 -214 *~;
#X msg 651 -519 set \$2-track_\$1_L;
#X msg 737 -496 set \$2-track_\$1_R;
#X obj -20 -294 catch~ \$0-input_R;
#X obj 1056 81 catch~ \$0-track_2_L;
#X obj 1100 101 catch~ \$0-track_2_R;
#X obj 1217 124 catch~ \$0-track_3_L;
#X obj 1261 144 catch~ \$0-track_3_R;
#X obj 1402 156 catch~ \$0-track_4_L;
#X obj 1446 176 catch~ \$0-track_4_R;
#X obj 913 272 throw~ \$0-4track_mix_L1;
#X obj 943 296 throw~ \$0-4track_mix_R1;
#X obj 393 926 throw~;
#X obj 317 903 throw~;
#X obj 918 34 catch~ \$0-track_1_L;
#X obj -236 -123 send~ \$0-signal_L;
#X obj -28 -117 send~ \$0-signal_R;
#X obj 456 -640 receive~ \$0-signal_L;
#X obj 595 -639 receive~ \$0-signal_R;
#X msg 406 898 set \$2-4track_mix_R\$1;
#X msg 338 869 set \$2-4track_mix_L\$1;
#X obj -68 30 t a;
#X obj -37 29 t a;
#X obj 1 29 t a;
#X obj 33 38 t a;
#X obj -133 133 loadbang;
#X msg -134 159 1;
#X text 1006 -46 <------ name the wav files using zexy date / time
;
#X msg 229 -72 0;
#X obj 220 -43 t f f f f;
#X msg 363 361 1;
#X obj 475 249 route 0;
#X msg 473 277 0;
#X msg 32 845 1;
#X msg 136 856 0;
#X text 519 717 monitor track;
#X obj 443 591 t b b;
#X obj 885 -621 t b b;
#X msg 885 -600 1, f 2;
#X obj 917 231 track-record-stereo~ \$0 1;
#X obj 1075 231 track-record-stereo~ \$0 2;
#X obj 1232 231 track-record-stereo~ \$0 3;
#X obj 1389 231 track-record-stereo~ \$0 4;
#X obj 106 34 t f f f f;
#X text 134 235 >;
#N canvas 0 50 450 300 inv 0;
#X msg 49 99 0;
#X obj 50 76 route 1;
#X obj 51 57 inlet;
#X obj 49 124 outlet;
#X connect 0 0 3 0;
#X connect 1 0 0 0;
#X connect 2 0 1 0;
#X restore 16 283 pd inv;
#N canvas 0 50 450 300 inv 0;
#X msg 49 99 0;
#X obj 50 76 route 1;
#X obj 51 57 inlet;
#X obj 49 124 outlet;
#X connect 0 0 3 0;
#X connect 1 0 0 0;
#X connect 2 0 1 0;
#X restore 16 303 pd inv;
#N canvas 0 50 450 300 inv 0;
#X msg 49 99 0;
#X obj 50 76 route 1;
#X obj 51 57 inlet;
#X obj 49 124 outlet;
#X connect 0 0 3 0;
#X connect 1 0 0 0;
#X connect 2 0 1 0;
#X restore 16 323 pd inv;
#N canvas 0 50 450 300 inv 0;
#X msg 49 99 0;
#X obj 50 76 route 1;
#X obj 51 57 inlet;
#X obj 49 124 outlet;
#X connect 0 0 3 0;
#X connect 1 0 0 0;
#X connect 2 0 1 0;
#X restore 16 343 pd inv;
#X connect 0 0 42 0;
#X connect 1 0 16 0;
#X connect 1 0 34 0;
#X connect 1 0 114 0;
#X connect 1 0 124 0;
#X connect 1 0 149 0;
#X connect 1 0 285 0;
#X connect 3 0 44 0;
#X connect 4 0 39 0;
#X connect 5 0 17 0;
#X connect 5 0 35 0;
#X connect 5 0 115 0;
#X connect 5 0 125 0;
#X connect 5 0 150 0;
#X connect 5 0 286 0;
#X connect 6 0 44 1;
#X connect 7 0 40 0;
#X connect 8 0 18 0;
#X connect 8 0 36 0;
#X connect 8 0 116 0;
#X connect 8 0 126 0;
#X connect 8 0 151 0;
#X connect 8 0 287 0;
#X connect 9 0 44 2;
#X connect 10 0 41 0;
#X connect 11 0 19 0;
#X connect 11 0 37 0;
#X connect 11 0 117 0;
#X connect 11 0 127 0;
#X connect 11 0 152 0;
#X connect 11 0 288 0;
#X connect 12 0 44 3;
#X connect 16 0 43 0;
#X connect 16 0 86 0;
#X connect 17 0 43 1;
#X connect 17 0 86 0;
#X connect 18 0 43 2;
#X connect 18 0 86 0;
#X connect 19 0 43 3;
#X connect 19 0 86 0;
#X connect 20 0 46 0;
#X connect 20 0 283 0;
#X connect 22 0 11 0;
#X connect 22 1 8 0;
#X connect 22 2 5 0;
#X connect 22 3 1 0;
#X connect 23 0 22 0;
#X connect 24 0 25 0;
#X connect 25 0 38 0;
#X connect 25 0 45 0;
#X connect 27 0 26 0;
#X connect 27 0 108 0;
#X connect 27 0 153 0;
#X connect 27 0 157 0;
#X connect 27 0 268 0;
#X connect 27 0 61 0;
#X connect 30 0 29 0;
#X connect 31 0 29 0;
#X connect 32 0 29 0;
#X connect 33 0 29 0;
#X connect 34 1 30 0;
#X connect 35 1 31 0;
#X connect 36 1 32 0;
#X connect 37 1 33 0;
#X connect 38 0 0 0;
#X connect 38 1 4 0;
#X connect 38 2 7 0;
#X connect 38 3 10 0;
#X connect 45 0 164 0;
#X connect 45 0 176 0;
#X connect 46 0 47 0;
#X connect 47 0 166 0;
#X connect 48 0 73 0;
#X connect 49 0 58 0;
#X connect 50 0 71 0;
#X connect 51 0 72 0;
#X connect 56 0 57 0;
#X connect 58 0 56 0;
#X connect 59 0 56 0;
#X connect 60 0 61 0;
#X connect 61 0 59 0;
#X connect 61 1 63 0;
#X connect 61 2 67 0;
#X connect 61 3 159 0;
#X connect 62 0 64 0;
#X connect 63 0 62 0;
#X connect 65 0 69 0;
#X connect 66 0 70 0;
#X connect 67 0 65 0;
#X connect 68 0 66 0;
#X connect 71 0 62 0;
#X connect 72 0 65 0;
#X connect 73 0 66 0;
#X connect 75 0 74 0;
#X connect 76 0 74 0;
#X connect 77 0 79 0;
#X connect 78 0 79 1;
#X connect 79 0 80 0;
#X connect 80 0 82 0;
#X connect 80 0 81 0;
#X connect 81 0 80 1;
#X connect 82 0 89 0;
#X connect 83 0 80 0;
#X connect 84 0 274 0;
#X connect 85 0 83 0;
#X connect 86 0 88 0;
#X connect 86 1 87 0;
#X connect 87 0 273 0;
#X connect 88 0 85 0;
#X connect 88 0 84 0;
#X connect 91 0 90 0;
#X connect 94 0 96 0;
#X connect 97 0 104 0;
#X connect 98 0 105 0;
#X connect 99 0 106 0;
#X connect 100 0 101 0;
#X connect 100 0 103 0;
#X connect 101 0 1 0;
#X connect 101 1 5 0;
#X connect 101 2 8 0;
#X connect 101 3 11 0;
#X connect 102 0 3 0;
#X connect 102 1 6 0;
#X connect 102 2 9 0;
#X connect 102 3 12 0;
#X connect 103 0 94 0;
#X connect 103 1 97 0;
#X connect 103 2 98 0;
#X connect 103 3 99 0;
#X connect 107 0 276 0;
#X connect 109 0 61 0;
#X connect 110 0 111 1;
#X connect 111 0 260 0;
#X connect 111 0 259 0;
#X connect 112 0 113 0;
#X connect 112 0 128 0;
#X connect 112 0 94 0;
#X connect 112 0 97 0;
#X connect 112 0 98 0;
#X connect 112 0 99 0;
#X connect 112 0 271 0;
#X connect 113 0 114 1;
#X connect 113 1 115 1;
#X connect 113 2 116 1;
#X connect 113 3 117 1;
#X connect 114 0 118 0;
#X connect 115 0 119 0;
#X connect 116 0 120 0;
#X connect 117 0 121 0;
#X connect 118 0 3 0;
#X connect 119 0 6 0;
#X connect 120 0 9 0;
#X connect 121 0 12 0;
#X connect 121 0 155 0;
#X connect 123 0 124 1;
#X connect 123 1 125 1;
#X connect 123 2 126 1;
#X connect 123 3 127 1;
#X connect 124 0 261 0;
#X connect 125 0 262 0;
#X connect 126 0 263 0;
#X connect 127 0 264 0;
#X connect 128 0 129 0;
#X connect 129 0 123 0;
#X connect 133 0 132 0;
#X connect 135 0 136 0;
#X connect 136 0 111 0;
#X connect 136 0 144 0;
#X connect 136 0 195 0;
#X connect 137 0 111 0;
#X connect 137 0 144 0;
#X connect 137 0 200 0;
#X connect 138 0 137 0;
#X connect 139 0 111 0;
#X connect 139 0 144 0;
#X connect 139 0 205 0;
#X connect 140 0 111 0;
#X connect 140 0 144 0;
#X connect 140 0 210 0;
#X connect 141 0 139 0;
#X connect 142 0 140 0;
#X connect 149 0 145 0;
#X connect 150 0 146 0;
#X connect 151 0 147 0;
#X connect 152 0 148 0;
#X connect 153 0 12 0;
#X connect 153 0 9 0;
#X connect 153 0 6 0;
#X connect 153 0 3 0;
#X connect 154 0 133 0;
#X connect 156 0 135 0;
#X connect 159 0 68 0;
#X connect 160 0 161 0;
#X connect 163 0 165 1;
#X connect 163 0 240 1;
#X connect 164 0 163 0;
#X connect 165 0 255 0;
#X connect 169 0 171 0;
#X connect 171 0 170 0;
#X connect 172 0 223 0;
#X connect 173 0 160 0;
#X connect 174 0 175 0;
#X connect 176 0 178 0;
#X connect 176 1 177 0;
#X connect 177 0 174 0;
#X connect 178 0 174 0;
#X connect 180 0 135 0;
#X connect 180 1 138 0;
#X connect 180 2 141 0;
#X connect 180 3 142 0;
#X connect 181 0 219 0;
#X connect 182 0 183 0;
#X connect 182 0 218 0;
#X connect 184 0 169 0;
#X connect 185 0 184 1;
#X connect 187 0 189 0;
#X connect 188 0 187 0;
#X connect 190 0 187 0;
#X connect 191 0 197 0;
#X connect 191 0 202 0;
#X connect 191 0 207 0;
#X connect 195 0 190 0;
#X connect 195 0 191 0;
#X connect 196 0 211 0;
#X connect 197 0 196 0;
#X connect 198 0 196 0;
#X connect 199 0 188 0;
#X connect 199 0 202 0;
#X connect 199 0 207 0;
#X connect 200 0 198 0;
#X connect 200 0 199 0;
#X connect 201 0 212 0;
#X connect 202 0 201 0;
#X connect 203 0 201 0;
#X connect 204 0 197 0;
#X connect 204 0 188 0;
#X connect 204 0 207 0;
#X connect 205 0 203 0;
#X connect 205 0 204 0;
#X connect 206 0 213 0;
#X connect 207 0 206 0;
#X connect 208 0 206 0;
#X connect 209 0 202 0;
#X connect 209 0 197 0;
#X connect 209 0 188 0;
#X connect 210 0 208 0;
#X connect 210 0 209 0;
#X connect 215 0 222 0;
#X connect 218 0 270 0;
#X connect 219 0 20 0;
#X connect 220 0 102 0;
#X connect 221 0 180 0;
#X connect 222 0 112 0;
#X connect 222 1 182 0;
#X connect 223 0 169 0;
#X connect 230 0 233 0;
#X connect 231 0 277 0;
#X connect 232 0 233 1;
#X connect 233 0 241 0;
#X connect 233 0 242 0;
#X connect 234 0 237 0;
#X connect 234 0 252 0;
#X connect 235 0 279 1;
#X connect 238 0 236 0;
#X connect 238 0 253 0;
#X connect 239 0 165 0;
#X connect 240 0 256 0;
#X connect 241 0 236 0;
#X connect 242 0 237 0;
#X connect 243 0 240 0;
#X connect 244 0 280 0;
#X connect 245 0 280 1;
#X connect 246 0 281 0;
#X connect 247 0 281 1;
#X connect 248 0 282 0;
#X connect 249 0 282 1;
#X connect 254 0 279 0;
#X connect 257 0 238 0;
#X connect 258 0 234 0;
#X connect 259 0 252 0;
#X connect 260 0 253 0;
#X connect 261 0 6 0;
#X connect 261 0 9 0;
#X connect 261 0 12 0;
#X connect 262 0 3 0;
#X connect 262 0 9 0;
#X connect 262 0 12 0;
#X connect 263 0 3 0;
#X connect 263 0 6 0;
#X connect 263 0 12 0;
#X connect 264 0 3 0;
#X connect 264 0 6 0;
#X connect 264 0 9 0;
#X connect 265 0 266 0;
#X connect 266 0 124 1;
#X connect 266 0 125 1;
#X connect 266 0 126 1;
#X connect 266 0 127 1;
#X connect 268 0 269 0;
#X connect 269 0 20 0;
#X connect 269 1 23 0;
#X connect 270 0 112 0;
#X connect 271 0 272 0;
#X connect 272 0 182 0;
#X connect 273 0 77 0;
#X connect 274 0 77 0;
#X connect 276 0 136 0;
#X connect 276 1 110 0;
#X connect 277 0 278 0;
#X connect 277 1 232 0;
#X connect 278 0 233 0;
#X connect 279 0 250 0;
#X connect 279 1 251 0;
#X connect 279 2 184 0;
#X connect 280 0 224 0;
#X connect 280 1 225 0;
#X connect 281 0 226 0;
#X connect 281 1 227 0;
#X connect 282 0 228 0;
#X connect 282 1 229 0;
#X connect 283 0 3 0;
#X connect 283 1 6 0;
#X connect 283 2 9 0;
#X connect 283 3 12 0;
#X connect 285 0 3 0;
#X connect 286 0 6 0;
#X connect 287 0 9 0;
#X connect 288 0 12 0;
#X coords 0 -1 1 1 226 284 1 100 100;
#X restore 53 36 pd \$0-4track-stereo;
#X restore 89 373 pd \$0-gui;
#X obj 547 681 outlet;
#X obj 671 547 r _file_name_\$0;
#X obj 733 653 r \$0-filename_4;
#X obj 717 626 r \$0-filename_3;
#X obj 685 579 r \$0-filename_1;
#X obj 701 606 r \$0-filename_2;
#X msg 634 676 bang;
#X obj 666 382 s \$0-wav4;
#X obj 579 244 inlet save;
#X obj 653 401 s \$0-wav3;
#X obj 620 421 s \$0-wav2;
#X obj 541 393 s \$0-wav1;
#X obj 812 383 s \$0-t3_tracks_r;
#X obj 851 406 s \$0-t4_tracks_r;
#X obj 769 360 s \$0-t2_tracks_r;
#X obj 731 333 s \$0-t1_tracks_r;
#X obj 853 691 r \$0-t1_tracks;
#X obj 876 714 r \$0-t2_tracks;
#X obj 901 737 r \$0-t3_tracks;
#X obj 932 759 r \$0-t4_tracks;
#X obj 659 797 pack s s s s f f f f;
#X text 981 713 number of files recorded per track;
#X obj 570 273 unpack s s s s f f f f;
#X obj 700 233 s \$0-sink_track;
#X msg 706 204 bang;
#X obj 195 89 inlet;
#X obj 196 109 s \$0_data;
#X obj 267 111 route gui;
#X msg 266 140 vis 1;
#X obj 265 170 s pd-\$0-gui;
#X obj 49 2 bng 15 250 50 0 empty empty empty 17 7 0 10 -262144 -1
-1;
#X obj 34 2 bng 15 250 50 0 empty empty empty 17 7 0 10 -262144 -1
-1;
#X obj 19 2 bng 15 250 50 0 empty empty empty 17 7 0 10 -262144 -1
-1;
#X obj 4 2 bng 15 250 50 0 empty empty empty 17 7 0 10 -262144 -1 -1
;
#X obj -233 648 outlet~;
#X obj -197 666 outlet~;
#X obj -48 690 outlet~;
#X obj -2 707 outlet~;
#X obj 144 718 outlet~;
#X obj 180 737 outlet~;
#X obj 325 780 outlet~;
#X obj 361 799 outlet~;
#X obj 28 135 inlet~;
#X obj 28 160 throw~ \$0-input_R;
#X obj -84 160 throw~ \$0-input_L;
#X obj 64 2 bng 15 250 50 0 empty empty empty 17 7 0 10 -262144 -1
-1;
#X obj 2 2 cnv 15 84 15 empty empty 4track-S~ 1 10 0 12 -241529 -66577
0;
#X obj 82 1 cnv 3 3 16 empty empty empty 20 12 0 14 -231425 -66577
0;
#X obj 186 2 cnv 3 3 4 empty empty empty 20 12 0 14 -231425 -66577
0;
#X obj 248 52 cnv 3 3 4 empty empty empty 20 12 0 14 -231425 -66577
0;
#X obj 332 476 \$0;
#X floatatom 332 512 5 0 0 0 - - -;
#X msg 330 453 bang;
#X obj -233 562 catch~ \$0-4track_mix_L1;
#X obj -196 581 catch~ \$0-4track_mix_R1;
#X obj -48 601 catch~ \$0-4track_mix_L2;
#X obj -2 619 catch~ \$0-4track_mix_R2;
#X obj 143 643 catch~ \$0-4track_mix_L3;
#X obj 179 663 catch~ \$0-4track_mix_R3;
#X obj 324 698 catch~ \$0-4track_mix_L4;
#X obj 362 717 catch~ \$0-4track_mix_R4;
#X obj 542 347 if-change;
#X obj 602 359 if-change;
#X obj 627 334 if-change;
#X obj 642 314 if-change;
#X connect 0 0 46 0;
#X connect 4 0 8 0;
#X connect 4 0 22 3;
#X connect 5 0 8 0;
#X connect 5 0 22 2;
#X connect 6 0 22 0;
#X connect 7 0 8 0;
#X connect 7 0 22 1;
#X connect 8 0 22 0;
#X connect 10 0 24 0;
#X connect 18 0 22 4;
#X connect 18 0 8 0;
#X connect 19 0 22 5;
#X connect 19 0 8 0;
#X connect 20 0 22 6;
#X connect 20 0 8 0;
#X connect 21 0 22 7;
#X connect 21 0 8 0;
#X connect 22 0 2 0;
#X connect 24 0 63 0;
#X connect 24 1 64 0;
#X connect 24 2 65 0;
#X connect 24 3 66 0;
#X connect 24 4 17 0;
#X connect 24 5 16 0;
#X connect 24 6 14 0;
#X connect 24 7 15 0;
#X connect 26 0 25 0;
#X connect 27 0 28 0;
#X connect 27 0 29 0;
#X connect 29 0 30 0;
#X connect 30 0 31 0;
#X connect 32 0 30 0;
#X connect 33 0 30 0;
#X connect 34 0 30 0;
#X connect 35 0 30 0;
#X connect 44 0 45 0;
#X connect 47 0 30 0;
#X connect 52 0 53 0;
#X connect 54 0 52 0;
#X connect 55 0 36 0;
#X connect 56 0 37 0;
#X connect 57 0 38 0;
#X connect 58 0 39 0;
#X connect 59 0 40 0;
#X connect 60 0 41 0;
#X connect 61 0 42 0;
#X connect 62 0 43 0;
#X connect 63 0 13 0;
#X connect 64 0 12 0;
#X connect 65 0 11 0;
#X connect 66 0 9 0;
#X coords 0 -1 1 1 86 20 2 0 0;
