#N canvas 0 93 1280 931 10;
#X obj 82 259 tgl 15 1 empty empty empty 0 -6 0 8 -258699 -1 -1 1 1
;
#N canvas 23 216 727 430 using 0;
#X obj 66 25 inlet~;
#X obj 67 369 outlet~;
#X obj 193 369 outlet~;
#X obj 335 369 outlet~;
#X obj 66 80 biquad~ 1.86972 -0.872325 0.000650245 0.00130049 0.000650245
;
#X text 185 59 lo x3;
#X obj 66 100 biquad~ 1.86972 -0.872325 0.000650245 0.00130049 0.000650245
;
#X obj 66 120 biquad~ 1.86972 -0.872325 0.000650245 0.00130049 0.000650245
;
#X obj 194 172 biquad~ 1.36591 -0.385279 0.307361 0 -0.307361;
#X text 329 152 mid x3;
#X obj 194 192 biquad~ 1.36591 -0.385279 0.307361 0 -0.307361;
#X obj 194 212 biquad~ 1.36591 -0.385279 0.307361 0 -0.307361;
#X obj 336 263 biquad~ 1.63386 -0.729864 0.840931 -1.68186 0.840931
;
#X text 476 241 hi x2;
#X obj 336 283 biquad~ 1.63386 -0.729864 0.840931 -1.68186 0.840931
;
#X obj 255 54 switch~;
#X obj 255 25 inlet switch;
#X connect 0 0 4 0;
#X connect 0 0 8 0;
#X connect 0 0 12 0;
#X connect 4 0 6 0;
#X connect 6 0 7 0;
#X connect 7 0 1 0;
#X connect 8 0 10 0;
#X connect 10 0 11 0;
#X connect 11 0 2 0;
#X connect 12 0 14 0;
#X connect 14 0 3 0;
#X connect 16 0 15 0;
#X restore 298 376 pd using raw biquad~ objects;
#X obj -130 401 hsl 128 15 0 1 0 1 empty empty dry/wet -2 -6 0 8 -241291
-1 -1 12700 1;
#N canvas 100 126 1013 687 output_mixer 0;
#X obj 13 -43 inlet dry/wet;
#X obj -49 -68 inlet~ dry;
#X obj 369 -20 inlet~ bass;
#X obj 459 -20 inlet~ mids;
#X obj 545 -20 inlet~ highs;
#X obj 174 -67 inlet bass;
#X obj 214 -42 inlet mids;
#X obj 244 -16 inlet highs;
#X obj 22 327 outlet~;
#X obj 200 227 *~;
#X obj 246 248 *~;
#X obj 160 227 *~;
#X obj 23 288 *~;
#X obj 70 288 *~;
#X obj 13 -19 * -1;
#X obj 13 3 + 1;
#X obj 115 120 line~;
#X obj 115 99 pack 0 50;
#X msg 115 64 0;
#X obj 115 41 moses 0.011;
#X obj 174 149 line~;
#X obj 174 128 pack 0 50;
#X msg 174 93 0;
#X obj 174 70 moses 0.011;
#X obj 239 180 line~;
#X obj 239 159 pack 0 50;
#X msg 239 124 0;
#X obj 239 101 moses 0.011;
#X obj 39 211 line~;
#X obj 39 190 pack 0 50;
#X msg 39 155 0;
#X obj 39 132 moses 0.011;
#X obj -59 202 line~;
#X obj -59 181 pack 0 50;
#X msg -59 146 0;
#X obj -59 123 moses 0.011;
#X floatatom 52 76 5 0 0 0 - - -, f 5;
#X connect 0 0 14 0;
#X connect 0 0 31 0;
#X connect 0 0 36 0;
#X connect 1 0 12 1;
#X connect 2 0 11 1;
#X connect 3 0 9 1;
#X connect 4 0 10 1;
#X connect 5 0 19 0;
#X connect 6 0 23 0;
#X connect 7 0 27 0;
#X connect 9 0 13 1;
#X connect 10 0 13 1;
#X connect 11 0 13 1;
#X connect 12 0 8 0;
#X connect 13 0 8 0;
#X connect 14 0 15 0;
#X connect 15 0 35 0;
#X connect 16 0 11 0;
#X connect 17 0 16 0;
#X connect 18 0 17 0;
#X connect 19 0 18 0;
#X connect 19 1 17 0;
#X connect 20 0 9 0;
#X connect 21 0 20 0;
#X connect 22 0 21 0;
#X connect 23 0 22 0;
#X connect 23 1 21 0;
#X connect 24 0 10 0;
#X connect 25 0 24 0;
#X connect 26 0 25 0;
#X connect 27 0 26 0;
#X connect 27 1 25 0;
#X connect 28 0 13 0;
#X connect 29 0 28 0;
#X connect 30 0 29 0;
#X connect 31 0 30 0;
#X connect 31 1 29 0;
#X connect 32 0 12 0;
#X connect 33 0 32 0;
#X connect 34 0 33 0;
#X connect 35 0 34 0;
#X connect 35 1 33 0;
#X restore 19 482 pd output_mixer;
#X obj 489 314 tgl 15 1 empty empty ON 0 -6 0 8 -258699 -1 -1 1 1;
#X text 100 259 <--choose your source;
#X obj 48 797 cnv 15 110 20 empty empty empty 20 12 0 14 -24198 -66577
0;
#X text 51 799 derek at umatic.nl;
#X obj 82 335 *~;
#X obj 101 116 vsl 15 50 0 1 0 0 empty empty empty 0 -9 0 10 -187855
-253831 -262144 4900 0;
#X obj 115 116 vsl 15 50 0 1 0 0 empty empty empty 0 -9 0 10 -163023
-241515 -260133 4900 0;
#X obj 130 116 vsl 15 50 0 1 0 0 empty empty empty 0 -9 0 10 -100747
-262144 -262144 4900 0;
#X obj 46 229 inlet~;
#X obj 123 907 outlet~;
#X text -31 800 original by:;
#X obj 7 -52 loadbang;
#X msg 6 -24 1;
#X floatatom -94 139 5 0 0 0 - - -, f 5;
#X obj 392 -52 inlet;
#X text 161 126 lo/;
#X text 162 139 mid/;
#X text 162 151 hi/;
#X obj 7 3 t f f f f f f f f;
#X obj 103 172 hsl 53 15 0 1 0 0 empty empty empty 20 10 0 14 -171453
-262139 -204800 5200 0;
#X text 250 160 comment;
#X text 161 160 dry/wet;
#X msg 645 159 1;
#X obj 622 91 loadbang;
#X obj 836 778 pack f f f f;
#X obj 860 844 outlet;
#X msg 151 306 bang;
#X obj 373 -27 unpack f f f f f;
#X obj 276 813 send symbol!;
#X obj 438 537 \$1;
#X obj 436 503 loadbang;
#X obj 336 560 pack f f;
#X obj 352 624 pack f f;
#X obj 358 696 pack f f;
#X obj 368 745 pack f f;
#X msg 353 649 symbol track\$2_eq-mid_\$1;
#X msg 331 595 symbol track\$2_eq-lo_\$1;
#X msg 359 721 symbol track\$2_eq-hi_\$1;
#X msg 369 770 symbol track\$2_dry_wet_\$1;
#X obj 657 257 tgl 15 1 empty empty empty 0 -6 0 8 -258699 -1 -1 1
1;
#N canvas 23 216 727 430 using 0;
#X obj 66 25 inlet~;
#X obj 67 369 outlet~;
#X obj 193 369 outlet~;
#X obj 335 369 outlet~;
#X obj 66 80 biquad~ 1.86972 -0.872325 0.000650245 0.00130049 0.000650245
;
#X text 185 59 lo x3;
#X obj 66 100 biquad~ 1.86972 -0.872325 0.000650245 0.00130049 0.000650245
;
#X obj 66 120 biquad~ 1.86972 -0.872325 0.000650245 0.00130049 0.000650245
;
#X obj 194 172 biquad~ 1.36591 -0.385279 0.307361 0 -0.307361;
#X text 329 152 mid x3;
#X obj 194 192 biquad~ 1.36591 -0.385279 0.307361 0 -0.307361;
#X obj 194 212 biquad~ 1.36591 -0.385279 0.307361 0 -0.307361;
#X obj 336 263 biquad~ 1.63386 -0.729864 0.840931 -1.68186 0.840931
;
#X text 476 241 hi x2;
#X obj 336 283 biquad~ 1.63386 -0.729864 0.840931 -1.68186 0.840931
;
#X obj 255 54 switch~;
#X obj 255 25 inlet switch;
#X connect 0 0 4 0;
#X connect 0 0 8 0;
#X connect 0 0 12 0;
#X connect 4 0 6 0;
#X connect 6 0 7 0;
#X connect 7 0 1 0;
#X connect 8 0 10 0;
#X connect 10 0 11 0;
#X connect 11 0 2 0;
#X connect 12 0 14 0;
#X connect 14 0 3 0;
#X connect 16 0 15 0;
#X restore 873 374 pd using raw biquad~ objects;
#N canvas 100 126 1013 687 output_mixer 0;
#X obj 13 -43 inlet dry/wet;
#X obj -49 -68 inlet~ dry;
#X obj 369 -20 inlet~ bass;
#X obj 459 -20 inlet~ mids;
#X obj 545 -20 inlet~ highs;
#X obj 174 -67 inlet bass;
#X obj 214 -42 inlet mids;
#X obj 244 -16 inlet highs;
#X obj 22 327 outlet~;
#X obj 200 227 *~;
#X obj 246 248 *~;
#X obj 160 227 *~;
#X obj 23 288 *~;
#X obj 70 288 *~;
#X obj 13 -19 * -1;
#X obj 13 3 + 1;
#X obj 115 120 line~;
#X obj 115 99 pack 0 50;
#X msg 115 64 0;
#X obj 115 41 moses 0.011;
#X obj 174 149 line~;
#X obj 174 128 pack 0 50;
#X msg 174 93 0;
#X obj 174 70 moses 0.011;
#X obj 239 180 line~;
#X obj 239 159 pack 0 50;
#X msg 239 124 0;
#X obj 239 101 moses 0.011;
#X obj 39 211 line~;
#X obj 39 190 pack 0 50;
#X msg 39 155 0;
#X obj 39 132 moses 0.011;
#X obj -59 202 line~;
#X obj -59 181 pack 0 50;
#X msg -59 146 0;
#X obj -59 123 moses 0.011;
#X floatatom 52 76 5 0 0 0 - - -, f 5;
#X connect 0 0 14 0;
#X connect 0 0 31 0;
#X connect 0 0 36 0;
#X connect 1 0 12 1;
#X connect 2 0 11 1;
#X connect 3 0 9 1;
#X connect 4 0 10 1;
#X connect 5 0 19 0;
#X connect 6 0 23 0;
#X connect 7 0 27 0;
#X connect 9 0 13 1;
#X connect 10 0 13 1;
#X connect 11 0 13 1;
#X connect 12 0 8 0;
#X connect 13 0 8 0;
#X connect 14 0 15 0;
#X connect 15 0 35 0;
#X connect 16 0 11 0;
#X connect 17 0 16 0;
#X connect 18 0 17 0;
#X connect 19 0 18 0;
#X connect 19 1 17 0;
#X connect 20 0 9 0;
#X connect 21 0 20 0;
#X connect 22 0 21 0;
#X connect 23 0 22 0;
#X connect 23 1 21 0;
#X connect 24 0 10 0;
#X connect 25 0 24 0;
#X connect 26 0 25 0;
#X connect 27 0 26 0;
#X connect 27 1 25 0;
#X connect 28 0 13 0;
#X connect 29 0 28 0;
#X connect 30 0 29 0;
#X connect 31 0 30 0;
#X connect 31 1 29 0;
#X connect 32 0 12 0;
#X connect 33 0 32 0;
#X connect 34 0 33 0;
#X connect 35 0 34 0;
#X connect 35 1 33 0;
#X restore 594 480 pd output_mixer;
#X obj 1064 312 tgl 15 1 empty empty ON 0 -6 0 8 -258699 -1 -1 1 1
;
#X text 675 257 <--choose your source;
#X obj 657 333 *~;
#X obj 266 110 inlet~;
#X msg 726 304 bang;
#X obj 449 902 outlet~;
#X connect 0 0 8 1;
#X connect 1 0 3 5;
#X connect 1 1 3 6;
#X connect 1 2 3 7;
#X connect 2 0 3 1;
#X connect 2 0 45 1;
#X connect 3 0 13 0;
#X connect 4 0 1 1;
#X connect 8 0 1 0;
#X connect 8 0 3 0;
#X connect 9 0 3 2;
#X connect 9 0 28 1;
#X connect 9 0 30 0;
#X connect 9 0 35 0;
#X connect 9 0 45 2;
#X connect 10 0 3 3;
#X connect 10 0 28 2;
#X connect 10 0 30 0;
#X connect 10 0 36 0;
#X connect 10 0 45 3;
#X connect 11 0 3 4;
#X connect 11 0 28 3;
#X connect 11 0 30 0;
#X connect 11 0 37 0;
#X connect 11 0 45 4;
#X connect 12 0 8 0;
#X connect 15 0 16 0;
#X connect 16 0 2 0;
#X connect 16 0 22 0;
#X connect 17 0 9 0;
#X connect 18 0 31 0;
#X connect 22 0 2 0;
#X connect 22 1 9 0;
#X connect 22 2 10 0;
#X connect 22 3 11 0;
#X connect 22 4 23 0;
#X connect 22 5 0 0;
#X connect 23 0 2 0;
#X connect 23 0 28 0;
#X connect 23 0 30 0;
#X connect 23 0 38 0;
#X connect 26 0 4 0;
#X connect 26 0 43 0;
#X connect 26 0 46 0;
#X connect 27 0 26 0;
#X connect 28 0 29 0;
#X connect 30 0 28 0;
#X connect 31 0 23 0;
#X connect 31 1 9 0;
#X connect 31 2 10 0;
#X connect 31 3 11 0;
#X connect 33 0 35 1;
#X connect 33 0 36 1;
#X connect 33 0 37 1;
#X connect 33 0 38 1;
#X connect 34 0 33 0;
#X connect 35 0 40 0;
#X connect 36 0 39 0;
#X connect 37 0 41 0;
#X connect 38 0 42 0;
#X connect 39 0 32 0;
#X connect 40 0 32 0;
#X connect 41 0 32 0;
#X connect 42 0 32 0;
#X connect 43 0 48 1;
#X connect 44 0 45 5;
#X connect 44 1 45 6;
#X connect 44 2 45 7;
#X connect 45 0 51 0;
#X connect 46 0 44 1;
#X connect 48 0 44 0;
#X connect 48 0 45 0;
#X connect 49 0 48 0;
#X coords 0 -1 1 1 60 90 1 100 100;
