#N canvas 54 183 450 300 10;
#X obj 297 155 symbol;
#N canvas 0 50 534 479 if-else 0;
#X symbolatom 170 250 10 0 0 0 - - -;
#X symbolatom 223 273 10 0 0 0 - - -;
#X obj 171 272 bng 15 250 50 0 empty empty empty 17 7 0 10 -262144
-1 -1;
#X obj 228 292 bng 15 250 50 0 empty empty empty 17 7 0 10 -262144
-1 -1;
#X floatatom 245 242 5 0 0 0 - - -;
#X msg 285 128 symbol \$1;
#X obj 175 82 inlet;
#X msg 182 107 symbol \$1;
#X obj 238 356 outlet;
#X obj 289 100 inlet;
#X obj 180 214 if-else trackname;
#X connect 0 0 2 0;
#X connect 1 0 3 0;
#X connect 1 0 8 0;
#X connect 5 0 10 1;
#X connect 6 0 7 0;
#X connect 7 0 10 0;
#X connect 9 0 5 0;
#X connect 10 0 0 0;
#X connect 10 1 1 0;
#X connect 10 2 4 0;
#X restore 246 187 pd if-else;
#X text 319 186 ¿???????;
#X obj 267 85 t a a;
#X obj 299 113 t b a;
#X obj 269 41 inlet;
#X obj 243 228 outlet;
#X obj 280 134 delay 1;
#X connect 0 0 1 1;
#X connect 1 0 6 0;
#X connect 3 0 1 0;
#X connect 3 1 4 0;
#X connect 4 0 7 0;
#X connect 4 1 0 1;
#X connect 5 0 3 0;
#X connect 7 0 0 0;
