#N canvas 387 249 531 459 10;
#X msg 276 257 bang;
#X obj 276 230 route dollarzero;
#X text 314 257 ????;
#X msg 272 204 \$1;
#X obj 269 153 symbol;
#X obj 269 129 t b a;
#X obj 254 23 loadbang;
#X obj 262 50 delay 10;
#X obj 260 91 symbol \$1;
#X obj 410 20 inlet;
#X obj 273 311 outlet;
#X obj 404 46 t b a a a;
#X obj 286 286 symbol \$1;
#X obj 367 309 outlet;
#X msg 349 255 bang;
#X text 387 255 ????;
#X obj 359 284 symbol \$1;
#X obj 379 181 loadbang;
#X obj 378 210 symbol \$1;
#X obj 484 41 inlet;
#X msg 459 289 0;
#X msg 427 299 1;
#X obj 451 325 outlet;
#X obj 269 179 zexy/symbol2list;
#X connect 0 0 12 0;
#X connect 0 0 21 0;
#X connect 1 0 0 0;
#X connect 1 1 14 0;
#X connect 3 0 1 0;
#X connect 4 0 23 0;
#X connect 5 0 4 0;
#X connect 5 1 4 1;
#X connect 6 0 7 0;
#X connect 7 0 8 0;
#X connect 8 0 5 0;
#X connect 9 0 11 0;
#X connect 11 0 8 0;
#X connect 11 1 8 1;
#X connect 11 3 16 1;
#X connect 12 0 10 0;
#X connect 14 0 16 0;
#X connect 14 0 20 0;
#X connect 16 0 13 0;
#X connect 17 0 18 0;
#X connect 18 0 1 1;
#X connect 19 0 1 1;
#X connect 20 0 22 0;
#X connect 21 0 22 0;
#X connect 23 0 3 0;
