#N canvas 177 146 1018 586 10;
#N canvas 334 417 150 115 gui_\$0 0;
#N canvas 254 196 908 568 flt 0;
#X msg 360 173 \; pd audio-properties;
#X obj 103 117 bng 15 250 50 0 empty empty empty 17 7 0 10 -262144
-1 -1;
#X obj 376 383 *~;
#N canvas 0 22 450 300 smooth 0;
#X obj 29 170 line~;
#X obj 29 127 pack 0 50;
#X obj 30 93 inlet;
#X obj 30 203 outlet~;
#X connect 0 0 3 0;
#X connect 1 0 0 0;
#X connect 2 0 1 0;
#X restore 392 347 pd smooth;
#X obj 441 385 *~;
#N canvas 0 22 450 300 smooth 0;
#X obj 29 170 line~;
#X obj 29 127 pack 0 50;
#X obj 30 93 inlet;
#X obj 30 203 outlet~;
#X connect 0 0 3 0;
#X connect 1 0 0 0;
#X connect 2 0 1 0;
#X restore 457 349 pd smooth;
#X obj 307 382 *~;
#N canvas 0 22 450 300 smooth 0;
#X obj 29 170 line~;
#X obj 29 127 pack 0 50;
#X obj 30 93 inlet;
#X obj 30 203 outlet~;
#X connect 0 0 3 0;
#X connect 1 0 0 0;
#X connect 2 0 1 0;
#X restore 323 346 pd smooth;
#X obj 797 320 == 1;
#X obj 831 320 == 2;
#X obj 803 359 tgl 15 0 empty empty empty 17 7 0 10 -262144 -1 -1 1
1;
#X obj 835 360 tgl 15 0 empty empty empty 17 7 0 10 -262144 -1 -1 0
1;
#X obj 774 285 t f f f;
#X obj 545 368 t f f;
#X obj 93 469 send~ \$0_signal_L_o;
#X obj 280 468 send~ \$0_signal_R_o;
#X obj 169 34 r \$0_data;
#X obj 181 66 route 0 1 2 3;
#X obj 459 317 adc~;
#X obj 168 265 s \$0_input_on_off;
#X obj 171 162 tgl 15 0 empty empty empty 17 7 0 10 -262144 -1 -1 0
1;
#X obj 545 82 r \$0_on-off_switch~;
#X obj 103 134 vradio 15 1 1 2 empty empty empty 0 -8 0 10 -92655 -245500
-1 0;
#X obj 99 230 + 1;
#X text 123 134 <-- mono;
#X text 123 148 <-- stereo;
#X text 100 163 on / off-->;
#X text 124 116 <--- set;
#X text 101 101 audio -input;
#X obj 102 178 nbx 5 14 -1e+37 1e+37 0 1 empty empty vol 30 8 0 10
-262144 -139265 -1 11 256;
#X obj 389 277 s \$0-input-volume;
#X obj 285 46 loadbang;
#X msg 285 76 1;
#X connect 1 0 0 0;
#X connect 2 0 14 0;
#X connect 3 0 2 1;
#X connect 4 0 15 0;
#X connect 5 0 4 1;
#X connect 6 0 14 0;
#X connect 6 0 15 0;
#X connect 7 0 6 1;
#X connect 8 0 10 0;
#X connect 8 0 7 0;
#X connect 9 0 11 0;
#X connect 9 0 13 0;
#X connect 12 1 8 0;
#X connect 12 2 9 0;
#X connect 13 0 3 0;
#X connect 13 1 5 0;
#X connect 16 0 17 0;
#X connect 17 0 1 0;
#X connect 17 1 22 0;
#X connect 17 2 20 0;
#X connect 18 0 2 0;
#X connect 18 0 6 0;
#X connect 18 1 4 0;
#X connect 20 0 19 0;
#X connect 21 0 20 0;
#X connect 22 0 23 0;
#X connect 23 0 12 0;
#X connect 29 0 30 0;
#X connect 31 0 32 0;
#X connect 32 0 20 0;
#X coords 0 -1 1 1 88 95 2 100 100;
#X restore 8 9 pd flt 1 sym symbol slider 0 flt2 0.449999 flt3 0.689655
flt4 0.425 flt5 0.325 flt6 0.650002 flt7 1;
#X restore 607 200 pd gui_\$0;
#X obj 317 98 inlet;
#X obj 343 210 s \$0_data;
#X obj 476 316 r \$0_data_!;
#X obj 179 646 outlet~;
#X obj 470 343 outlet;
#X obj 100 180 s pd-gui_\$0;
#X msg 101 156 vis 1;
#X obj 45 315 receive~ \$0_signal_L_o;
#X obj 313 661 outlet~;
#X obj 231 313 receive~ \$0_signal_R_o;
#X text 543 200 ------->;
#X obj 103 103 bng 15 250 50 0 empty empty empty 17 7 0 10 -262144
-1 -1;
#X obj 135 103 bng 15 250 50 0 empty empty empty 17 7 0 10 -262144
-1 -1;
#X obj 119 103 bng 15 250 50 0 empty empty empty 17 7 0 10 -262144
-1 -1;
#X obj 120 136 t b;
#X obj 101 102 cnv 15 52 16 empty empty input~ 10 7 0 12 -262125 -67772
0;
#X obj 306 516 *~;
#X obj 420 404 t f f;
#X msg 380 437 \$1 5;
#X obj 380 462 line~;
#X obj 447 447 pipe 8;
#X obj 210 511 *~;
#X obj 367 363 r \$0_input_on_off;
#X obj 294 549 hip~ 5;
#X obj 232 549 hip~ 5;
#N canvas 0 50 754 429 boost~ 0;
#X obj 257 288 *~;
#X obj 453 246 line~;
#X obj 161 283 *~;
#X msg 453 221 \$1 30;
#X obj 166 220 inlet~;
#X obj 255 222 inlet~;
#X obj 149 364 outlet~;
#X obj 243 362 outlet~;
#X obj 518 183 inlet;
#X connect 0 0 7 0;
#X connect 1 0 0 1;
#X connect 1 0 2 1;
#X connect 2 0 6 0;
#X connect 3 0 1 0;
#X connect 4 0 2 0;
#X connect 5 0 0 0;
#X connect 8 0 3 0;
#X restore 211 403 pd boost~;
#X obj 421 200 inlet;
#X obj 389 275 r \$0-input-volume;
#X obj 447 472 switch~;
#X obj 295 171 route float;
#X obj 216 201 s \$0_on-off_switch~;
#X connect 1 0 30 0;
#X connect 3 0 5 0;
#X connect 7 0 6 0;
#X connect 8 0 26 0;
#X connect 10 0 26 1;
#X connect 12 0 15 0;
#X connect 13 0 15 0;
#X connect 14 0 15 0;
#X connect 15 0 7 0;
#X connect 17 0 24 0;
#X connect 18 0 19 0;
#X connect 18 1 21 0;
#X connect 19 0 20 0;
#X connect 20 0 17 1;
#X connect 20 0 22 1;
#X connect 21 0 29 0;
#X connect 22 0 25 0;
#X connect 23 0 18 0;
#X connect 24 0 9 0;
#X connect 25 0 4 0;
#X connect 26 0 22 0;
#X connect 26 1 17 0;
#X connect 27 0 26 2;
#X connect 28 0 26 2;
#X connect 30 0 31 0;
#X connect 30 1 2 0;
#X coords 0 -1 1 1 55 20 2 100 100;
