#N canvas 261 159 839 781 10;
#X obj 138 650 outlet~;
#X obj 164 629 outlet~;
#X obj 139 3 inlet~;
#X obj 198 602 outlet~;
#X obj 224 580 outlet~;
#X obj 260 553 outlet~;
#X obj 286 532 outlet~;
#X obj 316 504 outlet~;
#X obj 342 483 outlet~;
#X obj 199 43 inlet~;
#X obj 258 84 inlet~;
#X obj 317 125 inlet~;
#X obj 165 23 inlet~;
#X obj 224 63 inlet~;
#X obj 284 104 inlet~;
#X obj 343 145 inlet~;
#X obj 139 185 dq~ 1;
#X obj 139 281 t-s~ 1;
#X obj 199 186 dq~ 2;
#X obj 259 186 dq~ 3;
#X obj 316 186 dq~ 4;
#X obj 199 281 t-s~ 2;
#X obj 259 281 t-s~ 3;
#X obj 316 281 t-s~ 4;
#X connect 2 0 16 0;
#X connect 9 0 18 0;
#X connect 10 0 19 0;
#X connect 11 0 20 0;
#X connect 12 0 16 1;
#X connect 13 0 18 1;
#X connect 14 0 19 1;
#X connect 15 0 20 1;
#X connect 16 0 17 0;
#X connect 16 1 17 1;
#X connect 17 0 0 0;
#X connect 17 1 1 0;
#X connect 18 0 21 0;
#X connect 18 1 21 1;
#X connect 19 0 22 0;
#X connect 19 1 22 1;
#X connect 20 0 23 0;
#X connect 20 1 23 1;
#X connect 21 0 3 0;
#X connect 21 1 4 0;
#X connect 22 0 5 0;
#X connect 22 1 6 0;
#X connect 23 0 7 0;
#X connect 23 1 8 0;
