#N canvas 72 150 1199 789 10;
#X declare -stdlib zexy;
#X obj 189 642 dac~;
#X text 305 -454 audio in;
#X text 398 -63 filter out DC;
#X msg 645 174 start;
#X msg 648 199 stop;
#X obj 472 288 writesf~ 2;
#X floatatom 615 -364 0 0 0 0 - - -;
#X floatatom 603 -340 0 0 0 0 - - -;
#X floatatom 592 -313 0 0 0 0 - - -;
#X floatatom 665 -404 0 0 0 0 - - -;
#X floatatom 653 -380 0 0 0 0 - - -;
#X floatatom 642 -353 0 0 0 0 - - -;
#X obj 607 -466 t b b;
#X obj 589 -173 print FILENAME;
#X msg 552 -65 open \$1;
#X obj 574 110 delay 2000;
#X obj 765 170 tgl 15 0 empty empty empty 0 -6 0 8 -262144 -1 -1 0
1;
#X floatatom 823 172 5 0 0 0 - - -, f 5;
#X obj 589 -203 makefilename %s.wav;
#X obj 765 193 metro 1000;
#X obj 294 -251 *~;
#X obj 325 -251 *~;
#X text 216 -229 just a small delay of 64 samples;
#X obj 766 273 f;
#X obj 805 273 + 1;
#X floatatom 765 303 5 0 0 0 - - -, f 5;
#X msg 830 239 0;
#X obj 589 -234 list2symbol -;
#X obj 342 -280 z~ 64;
#X obj 272 -277 z~ 64;
#X obj 280 -300 limiter~ 50 1;
#X obj 578 -436 date;
#X obj 651 -441 time;
#X obj 292 -64 hip~ 5;
#X obj 354 -64 hip~ 5;
#X msg 764 150 bang;
#X msg 645 150 bang;
#X msg 575 87 bang;
#X msg 828 216 bang;
#X obj 63 5 bng 15 250 50 0 empty empty empty 17 7 0 10 -163830 -261892
-1;
#X symbolatom 4 24 25 0 0 0 - - -, f 25;
#X floatatom 150 8 5 0 0 0 - - -, f 5;
#X obj 82 5 bng 15 250 50 0 empty empty empty 17 7 0 10 -126067 -260127
-1;
#X obj 102 5 bng 15 250 50 0 empty empty empty 17 7 0 10 -212736 -146624
-1;
#X text 37 8 rec;
#X text 118 8 stop;
#X obj 709 -87 outlet;
#X obj 914 -122 declare -stdlib zexy;
#X msg 645 282 bang;
#X msg 682 283 bang;
#X obj 655 322 timer;
#X obj 466 -281 inlet;
#X obj 463 -246 unpack f;
#X obj 433 -201 route 1 0;
#X obj -80 41 delay 1111;
#X obj -81 1 loadbang;
#X msg -75 67 1;
#X obj 277 196 *~ 1;
#X obj 340 195 *~ 1;
#X obj 4 45 nbx 5 14 -1e+37 1e+37 0 1 empty empty rec_delay_(ms) 57
8 0 10 -262144 -139265 -1 11 256;
#X msg 141 365 1;
#X msg 244 359 0;
#X obj 105 228 symbol;
#X msg 104 250 open \$1;
#X msg 243 340 bang;
#X msg 104 200 bang;
#X msg 141 278 bang;
#X msg 141 323 bang;
#X obj 114 508 t a;
#X obj 113 531 readsf~ 2;
#X obj -18 -95 r \$0-record-filename;
#X obj 110 -96 r \$0-recordstart;
#X obj 212 -95 r \$0-recordstop;
#X obj 82 -32 r \$0-recording;
#X obj 235 -18 r \$0-record-time;
#X obj 248 29 s \$0-record-stop;
#X obj 228 51 s \$0-record-start;
#X obj 653 359 s \$0-record-timer;
#X obj 809 325 s \$0-record-time;
#X obj 931 133 r \$0-record-stop;
#X obj 765 126 r \$0-record-start;
#X obj 546 163 s \$0-recording;
#X text 650 110 set delay to start recording;
#X obj 586 -495 r \$0-record-start;
#X obj 113 144 route 1 0;
#X obj 141 301 delay 10;
#X obj -45 419 vsl 15 128 0 127 0 0 empty empty empty 0 -9 0 10 -262144
-1 -1 0 1;
#X obj 4 62 tgl 25 0 empty empty empty 17 7 0 10 -59371 -261790 -1
0 1;
#X text 34 69 <---- playback.;
#X obj 360 -482 nbx 5 14 -1e+37 1e+37 0 1 empty empty empty 0 -8 0
10 -262144 -1 -1 6 256;
#N canvas 0 50 450 300 boost 0;
#X obj 257 288 *~;
#X obj 453 246 line~;
#X obj 161 283 *~;
#X msg 453 221 \$1 30;
#X obj 166 220 inlet~;
#X obj 255 222 inlet~;
#X obj 149 364 outlet~;
#X obj 243 362 outlet~;
#X obj 456 139 loadbang;
#X obj 518 183 inlet;
#X obj 457 179 \$1;
#X connect 0 0 7 0;
#X connect 1 0 0 1;
#X connect 1 0 2 1;
#X connect 2 0 6 0;
#X connect 3 0 1 0;
#X connect 4 0 2 0;
#X connect 5 0 0 0;
#X connect 8 0 10 0;
#X connect 9 0 3 0;
#X connect 10 0 3 0;
#X restore 285 -478 pd boost;
#X obj 367 -431 *~ 1;
#X obj 276 -436 *~ 1;
#X obj 264 -515 inlet~;
#X obj 324 -514 inlet~;
#X obj 6 93 nbx 5 14 -1e+37 1e+37 0 1 empty empty boost_input_vol 57
8 0 10 -262144 -139265 -1 6 256;
#X obj 188 5 vsl 15 100 0 1 0 1 empty empty empty 0 -9 0 10 -262144
-2290 -1 9900 0;
#X obj 224 586 *~;
#X obj 362 309 vline~;
#X obj 250 586 *~;
#X obj 357 266 pack f 10;
#X obj 429 30 loadbang;
#X msg 434 62 1;
#X text 189 0 output vol, f 1;
#X obj 589 -150 s \$0-record-filename;
#X obj 427 -138 route play stop;
#X msg 425 -112 1;
#X msg 462 -104 0;
#X obj 589 -266 pack f f f f f f f;
#X obj 704 -348 loadbang;
#X obj 705 -311 \$0;
#X connect 3 0 5 0;
#X connect 3 0 48 0;
#X connect 4 0 5 0;
#X connect 4 0 49 0;
#X connect 6 0 108 2;
#X connect 7 0 108 1;
#X connect 8 0 108 0;
#X connect 9 0 108 5;
#X connect 10 0 108 4;
#X connect 11 0 108 3;
#X connect 12 0 31 0;
#X connect 12 1 32 0;
#X connect 14 0 5 0;
#X connect 14 0 37 0;
#X connect 15 0 36 0;
#X connect 15 0 35 0;
#X connect 15 0 81 0;
#X connect 16 0 19 0;
#X connect 17 0 19 1;
#X connect 18 0 13 0;
#X connect 18 0 14 0;
#X connect 18 0 46 0;
#X connect 18 0 62 1;
#X connect 18 0 104 0;
#X connect 19 0 23 0;
#X connect 20 0 33 0;
#X connect 21 0 34 0;
#X connect 23 0 25 0;
#X connect 23 0 24 0;
#X connect 24 0 23 1;
#X connect 25 0 78 0;
#X connect 26 0 23 0;
#X connect 27 0 18 0;
#X connect 28 0 21 1;
#X connect 29 0 20 0;
#X connect 30 0 21 0;
#X connect 30 0 20 1;
#X connect 31 0 8 0;
#X connect 31 1 7 0;
#X connect 31 2 6 0;
#X connect 32 0 11 0;
#X connect 32 1 10 0;
#X connect 32 2 9 0;
#X connect 33 0 57 0;
#X connect 34 0 58 0;
#X connect 35 0 16 0;
#X connect 36 0 3 0;
#X connect 37 0 15 0;
#X connect 38 0 26 0;
#X connect 39 0 76 0;
#X connect 43 0 75 0;
#X connect 48 0 50 0;
#X connect 49 0 50 1;
#X connect 50 0 77 0;
#X connect 51 0 52 0;
#X connect 51 0 105 0;
#X connect 52 0 53 0;
#X connect 53 0 39 0;
#X connect 53 1 43 0;
#X connect 54 0 56 0;
#X connect 55 0 54 0;
#X connect 57 0 5 0;
#X connect 57 0 97 0;
#X connect 58 0 5 1;
#X connect 58 0 99 0;
#X connect 59 0 15 1;
#X connect 60 0 68 0;
#X connect 61 0 68 0;
#X connect 62 0 63 0;
#X connect 63 0 66 0;
#X connect 63 0 68 0;
#X connect 64 0 61 0;
#X connect 65 0 62 0;
#X connect 66 0 85 0;
#X connect 67 0 60 0;
#X connect 68 0 69 0;
#X connect 69 0 97 0;
#X connect 69 1 99 0;
#X connect 70 0 40 0;
#X connect 71 0 39 0;
#X connect 72 0 43 0;
#X connect 73 0 42 0;
#X connect 74 0 41 0;
#X connect 79 0 38 0;
#X connect 79 0 4 0;
#X connect 79 0 35 0;
#X connect 83 0 12 0;
#X connect 84 0 65 0;
#X connect 84 1 64 0;
#X connect 85 0 67 0;
#X connect 87 0 84 0;
#X connect 89 0 90 2;
#X connect 90 0 92 0;
#X connect 90 1 91 0;
#X connect 91 0 28 0;
#X connect 91 0 30 1;
#X connect 92 0 29 0;
#X connect 92 0 30 0;
#X connect 93 0 90 0;
#X connect 94 0 90 1;
#X connect 95 0 89 0;
#X connect 96 0 100 0;
#X connect 97 0 0 0;
#X connect 98 0 97 1;
#X connect 98 0 99 1;
#X connect 99 0 0 1;
#X connect 100 0 98 0;
#X connect 101 0 102 0;
#X connect 102 0 96 0;
#X connect 105 0 106 0;
#X connect 105 1 107 0;
#X connect 106 0 87 0;
#X connect 107 0 87 0;
#X connect 108 0 27 0;
#X connect 109 0 110 0;
#X connect 110 0 108 6;
#X coords 0 -1 1 1 205 110 1 0 0;
