#N canvas 0 93 1280 931 10;
#N canvas 18 180 1028 659 crossfader 0;
#X obj 281 463 *~;
#X obj 140 308 -;
#X obj 178 463 *~;
#X msg 140 288 1 \$1;
#X obj 212 312 inlet~;
#X obj 286 307 inlet~;
#X obj 202 739 outlet~;
#X obj 294 648 outlet~;
#X obj 609 269 line~;
#X obj 609 248 pack 0 50;
#X text 676 247 <-- make a ramp to avoid clicks or zipper noise;
#X msg 609 213 0;
#X obj 609 190 moses 0.011;
#X obj 32 320 line~;
#X obj -42 241 pack 0 50;
#X text 25 240 <-- make a ramp to avoid clicks or zipper noise;
#X msg -42 206 0;
#X obj -42 183 moses 0.011;
#X obj 125 66 inlet;
#X obj 328 127 t a;
#X connect 0 0 7 0;
#X connect 1 0 17 0;
#X connect 2 0 6 0;
#X connect 3 0 1 0;
#X connect 4 0 2 0;
#X connect 5 0 0 0;
#X connect 8 0 0 1;
#X connect 9 0 8 0;
#X connect 11 0 9 0;
#X connect 12 0 11 0;
#X connect 12 1 9 0;
#X connect 13 0 2 1;
#X connect 14 0 13 0;
#X connect 16 0 14 0;
#X connect 17 0 16 0;
#X connect 17 1 14 0;
#X connect 18 0 19 0;
#X connect 19 0 3 0;
#X connect 19 0 12 0;
#X coords 0 659 1 658 60 30 0;
#X restore 347 288 pd crossfader;
#X obj 127 115 vsl 30 50 0 1 0 0 empty empty empty 0 -9 0 10 -71270
-220926 -1 4900 1;
#X obj 565 373 *~;
#X obj 561 318 line~;
#X obj 561 297 pack 0 50;
#X msg 561 262 0;
#X obj 561 239 moses 0.011;
#X obj 102 143 tgl 25 0 empty empty empty 17 7 0 10 -100331 -261761
-1 1 1;
#X obj 651 372 *~;
#X obj 647 317 line~;
#X obj 647 296 pack 0 50;
#X msg 647 261 0;
#X obj 647 238 moses 0.011;
#X obj -46 51 loadbang;
#X msg -44 76 1;
#N canvas 255 229 450 300 volume 0;
#X obj 126 122 hsl 50 25 0 1 0 0 empty empty empty 20 10 0 14 -63524
-97072 -204800 4900 1;
#X obj 301 483 *~;
#X obj 198 483 *~;
#X obj 381 465 vsl 15 128 0 1 0 0 empty empty empty 0 -8 0 8 -262144
-1 -1 12700 1;
#X obj 171 464 vsl 15 128 0 1 0 0 empty empty empty 0 -8 0 8 -262144
-1 -1 12700 1;
#X floatatom 171 600 5 0 0 0 - - -, f 5;
#X floatatom 381 600 5 0 0 0 - - -, f 5;
#X obj 232 332 inlet~;
#X obj 306 327 inlet~;
#X obj 222 759 outlet~;
#X obj 314 668 outlet~;
#X obj 510 352 loadbang;
#X msg 524 398 0.5;
#X obj 629 289 line~;
#X obj 629 268 pack 0 50;
#X text 696 267 <-- make a ramp to avoid clicks or zipper noise;
#X msg 629 233 0;
#X obj 629 210 moses 0.011;
#X obj -22 282 line~;
#X obj -22 261 pack 0 50;
#X text 45 260 <-- make a ramp to avoid clicks or zipper noise;
#X msg -22 226 0;
#X obj -22 203 moses 0.011;
#X obj 758 45 inlet;
#X obj 376 -92 vsl 32 128 0 127 0 0 empty empty empty 0 -9 0 10 -71270
-220926 -1 0 1;
#X connect 0 0 3 0;
#X connect 0 0 17 0;
#X connect 0 0 22 0;
#X connect 0 0 4 0;
#X connect 1 0 10 0;
#X connect 2 0 9 0;
#X connect 3 0 6 0;
#X connect 4 0 5 0;
#X connect 7 0 2 1;
#X connect 8 0 1 1;
#X connect 11 0 12 0;
#X connect 12 0 0 0;
#X connect 13 0 1 0;
#X connect 14 0 13 0;
#X connect 16 0 14 0;
#X connect 17 0 16 0;
#X connect 17 1 14 0;
#X connect 18 0 2 0;
#X connect 19 0 18 0;
#X connect 21 0 19 0;
#X connect 22 0 21 0;
#X connect 22 1 19 0;
#X connect 23 0 0 0;
#X restore 619 97 pd volume;
#X obj -174 -58 inlet~;
#X obj -124 -64 inlet~;
#X obj 684 775 outlet~;
#X obj 105 171 hsl 50 25 0 1 0 0 empty empty empty 20 10 0 14 -63524
-97072 -204800 2450 1;
#X obj 35 116 tgl 25 0 empty empty empty 17 7 0 10 -100331 -261761
-1 0 1;
#X obj 17 50 s solo;
#X text 164 137 volume;
#X text 107 177 panning;
#X text 37 150 trackonoff;
#X text 73 119 solo;
#X text 104 117 vol.;
#X text 105 128 on;
#X obj 201 33 loadbang;
#X text 741 310 track on off \, volume and panning no clipping;
#X obj 342 217 t f f;
#X msg 130 289 0.5;
#X obj 128 329 loadbang;
#X msg 201 58 1;
#X obj 585 758 outlet~;
#N canvas 0 50 957 576 solo 0;
#X obj 266 130 inlet~;
#X obj 243 470 outlet~;
#X obj 631 144 inlet;
#X obj 640 410 r solo¿;
#X obj 710 212 \$0;
#X obj 708 181 bng 15 250 50 0 empty empty empty 17 7 0 10 -262144
-1 -1;
#X obj 712 150 loadbang;
#X floatatom 751 317 5 0 0 0 - - -, f 5;
#X obj 620 289 ==;
#X obj 755 360 f;
#X obj 756 388 s solo?chan;
#X obj 667 324 bng 15 250 50 0 empty empty empty 17 7 0 10 -262144
-1 -1;
#X obj 618 255 r solo?chan;
#X floatatom 611 317 5 0 0 0 - - -, f 5;
#X obj 365 453 line~;
#X obj 365 432 pack 0 50;
#X msg 365 397 0;
#X obj 365 374 moses 0.011;
#X obj 282 441 *~;
#X obj 551 379 tgl 15 0 empty empty empty 17 7 0 10 -262144 -1 -1 0
1;
#X obj 547 401 route 0 1;
#X obj 632 181 tgl 20 0 empty empty empty 17 7 0 10 -50527 -261554
-1 0 1;
#X obj 611 465 spigot;
#X obj 748 521 s solo¿;
#X obj 692 426 -;
#X msg 692 406 1 \$1;
#X msg 743 476 1;
#X obj 638 433 pipe 2;
#X msg 610 490 1;
#X obj 528 232 r solo¿;
#X text 631 167 solo~;
#X obj 322 274 loadbang;
#X msg 326 300 1;
#X obj 303 356 pipe 30;
#X obj 152 474 outlet~;
#X obj 191 445 *~;
#X obj 207 142 inlet~;
#X connect 0 0 18 0;
#X connect 2 0 21 0;
#X connect 3 0 27 0;
#X connect 4 0 7 0;
#X connect 5 0 4 0;
#X connect 6 0 5 0;
#X connect 7 0 9 1;
#X connect 7 0 8 1;
#X connect 8 0 13 0;
#X connect 9 0 10 0;
#X connect 11 0 9 0;
#X connect 12 0 8 0;
#X connect 13 0 17 0;
#X connect 13 0 25 0;
#X connect 14 0 18 1;
#X connect 14 0 35 1;
#X connect 15 0 14 0;
#X connect 16 0 15 0;
#X connect 17 0 16 0;
#X connect 17 1 15 0;
#X connect 18 0 1 0;
#X connect 19 0 20 0;
#X connect 20 0 26 0;
#X connect 20 1 11 0;
#X connect 21 0 19 0;
#X connect 22 0 28 0;
#X connect 24 0 22 1;
#X connect 25 0 24 0;
#X connect 26 0 23 0;
#X connect 28 0 21 0;
#X connect 29 0 17 0;
#X connect 31 0 32 0;
#X connect 32 0 33 0;
#X connect 33 0 17 0;
#X connect 35 0 34 0;
#X connect 36 0 35 0;
#X restore 594 518 pd solo;
#X obj 102 198 tgl 15 0 empty empty empty 17 7 0 10 -50527 -261554
-1 0 1;
#X text 119 197 solo~;
#X obj 461 -15 inlet;
#X obj 442 10 unpack f f f f;
#X obj 773 521 pack f f f f;
#X obj 780 556 outlet;
#X obj 149 661 send symbol!;
#X obj 240 381 \$1;
#X obj 238 347 loadbang;
#X obj 209 408 pack f f;
#X obj 225 472 pack f f;
#X obj 231 544 pack f f;
#X obj 241 593 pack f f;
#X msg 242 618 symbol solo_track\$2_\$1;
#X msg 232 569 symbol mute_track\$2_\$1;
#X msg 226 497 symbol volume_track\$2_\$1;
#X msg 204 443 symbol panning_track\$2_\$1;
#X obj 746 51 send symbol!;
#X msg 688 -27 bang;
#X obj 698 -2 delay 120;
#X msg 745 32 symbol track\$1;
#X obj 774 10 \$1;
#X connect 0 0 2 1;
#X connect 0 1 8 1;
#X connect 1 0 15 2;
#X connect 1 0 40 1;
#X connect 1 0 46 0;
#X connect 2 0 35 0;
#X connect 3 0 2 0;
#X connect 4 0 3 0;
#X connect 5 0 4 0;
#X connect 6 0 5 0;
#X connect 6 1 4 0;
#X connect 7 0 30 0;
#X connect 7 0 40 0;
#X connect 7 0 47 0;
#X connect 8 0 35 1;
#X connect 9 0 8 0;
#X connect 10 0 9 0;
#X connect 11 0 10 0;
#X connect 12 0 11 0;
#X connect 12 1 10 0;
#X connect 13 0 14 0;
#X connect 14 0 7 0;
#X connect 15 0 0 1;
#X connect 15 1 0 2;
#X connect 16 0 15 0;
#X connect 17 0 15 1;
#X connect 19 0 0 0;
#X connect 19 0 40 2;
#X connect 19 0 45 0;
#X connect 20 0 21 0;
#X connect 28 0 33 0;
#X connect 30 0 6 0;
#X connect 30 1 12 0;
#X connect 31 0 19 0;
#X connect 32 0 31 0;
#X connect 33 0 1 0;
#X connect 35 0 34 0;
#X connect 35 1 18 0;
#X connect 36 0 35 2;
#X connect 36 0 40 3;
#X connect 36 0 48 0;
#X connect 38 0 39 0;
#X connect 38 0 54 0;
#X connect 39 0 7 0;
#X connect 39 1 1 0;
#X connect 39 2 19 0;
#X connect 39 3 36 0;
#X connect 40 0 41 0;
#X connect 43 0 45 1;
#X connect 43 0 46 1;
#X connect 43 0 47 1;
#X connect 43 0 48 1;
#X connect 44 0 43 0;
#X connect 45 0 52 0;
#X connect 46 0 51 0;
#X connect 47 0 50 0;
#X connect 48 0 49 0;
#X connect 49 0 42 0;
#X connect 50 0 42 0;
#X connect 51 0 42 0;
#X connect 52 0 42 0;
#X connect 54 0 55 0;
#X connect 55 0 57 0;
#X connect 56 0 53 0;
#X connect 57 0 56 0;
#X coords 0 -1 1 1 60 115 1 100 100;
