#N canvas 0 93 1280 931 10;
#X declare -stdlib iemlib;
#X obj 424 -232 inlet~;
#X obj 291 -58 line~;
#X obj 396 16 *~;
#X obj 291 -79 pack 0 50;
#X msg 291 -114 0;
#X obj 291 -137 moses 0.011;
#X msg 714 -158 start;
#X msg 1125 -136 stop;
#X msg 688 -335 open \$1;
#X obj 414 -47 *~;
#X obj 414 -67 z~ 64;
#X msg 576 552 1;
#X msg 674 492 0;
#X obj 396 1087 outlet~;
#X obj 540 415 symbol;
#X msg 539 437 open \$1;
#X obj 576 488 delay 1000;
#X obj 713 -201 delay 1000;
#X obj 747 -531 print FILENAME;
#X obj 688 -355 symbol;
#X msg 1127 -117 1;
#X obj 423 814 *~;
#X obj 411 -14 hip~ 5;
#X msg 601 615 open \$1;
#X obj 1136 224 symbol;
#X obj 600 834 spigot;
#X obj 626 810 tgl 15 0 empty empty empty 17 7 0 10 -262144 -1 -1 1
1;
#X obj 857 210 delay 1;
#X obj 1068 -784 f;
#X obj 1099 -784 + 1;
#X obj 1023 -817 t a b;
#X obj 992 -732 list append;
#X obj 995 -705 list trim;
#X obj 1022 -838 symbol;
#X msg 1016 -864 bang;
#X obj 995 -681 zexy/list2symbol +;
#X msg 1060 -760 \$1;
#X obj 688 -381 t b a;
#X obj 1146 197 t b a;
#X obj 952 86 timer;
#X obj 1036 771 line;
#X msg 1042 731 1 \$1;
#X obj 920 316 f;
#X msg 1080 730 0 0;
#X obj 918 290 t b b;
#X obj 595 970 *~;
#X obj 1037 829 route 1;
#X obj 1037 810 change;
#X msg 1037 868 0 10;
#X msg 878 605 1 15;
#X obj 1036 790 > 0.99;
#X msg 874 655 1 10;
#X msg 1212 331 open \$1;
#X obj 1214 309 symbol;
#X obj 1194 262 delay 1;
#X msg 1194 283 1;
#X msg 711 -224 bang;
#X msg 715 -180 bang;
#X obj 672 454 r \$1-stop_play_track\$2;
#X obj 538 369 r \$1-play_track\$2;
#X msg 673 473 bang;
#X msg 539 387 bang;
#X msg 1037 848 bang;
#X msg 576 465 bang;
#X msg 576 510 bang;
#X obj 1137 -666 r \$1symbolr;
#X obj 1131 -465 s \$1-filename_\$2;
#X obj 1157 -735 s \$1-t\$2_tracks;
#X obj 1090 -864 r _file_name_\$1;
#X obj 1053 -901 r \$1-new_track_\$2;
#X obj 1013 -970 r \$1-new_tape!;
#X obj 729 -577 pack s f;
#X obj 921 -639 loadbang;
#X obj 920 -593 \$2;
#X msg 1123 -157 bang;
#X obj 1121 -177 r \$1-stop_rec_track\$2;
#X obj 838 139 r \$1-sink_track;
#X obj 1132 144 r \$1-play_track_\$2;
#X msg 978 67 bang;
#X msg 714 -136 bang;
#X obj 634 779 r \$1-loop-track\$2;
#X obj 1076 771 r \$1-smoother;
#X obj 1133 -20 s \$1_track_\$2_recorded;
#X obj 1145 175 r \$1-wav\$2;
#X obj 292 -163 r to-volume\$2_\$1;
#X msg 731 -620 bang;
#X obj 728 -558 makefilename %s_track\$2.wav;
#X obj 660 905 vline~;
#X obj 744 -320 r \$1-delay_recording;
#X obj 1117 -494 makefilename %s_track\$2.wav;
#X obj 1137 -548 pack s f;
#X obj 1323 -680 loadbang;
#X obj 1322 -634 \$2;
#X msg 1204 -635 bang;
#X msg 1091 -815 1;
#X obj 639 720 r \$1-player\$2;
#X obj 569 779 spigot;
#X obj 894 1069 outlet;
#X msg 978 959 1;
#X obj 976 934 r \$1_track_\$2_recorded;
#X obj 882 934 r \$1-new_tape!;
#X msg 884 959 0;
#X obj 859 1006 spigot;
#X obj 549 695 t a;
#X msg 415 611 1;
#X obj 413 586 r \$1_track_\$2_recorded;
#X obj 319 586 r \$1-new_tape!;
#X msg 321 611 0;
#X obj 463 706 spigot;
#N canvas 2 153 1274 803 load-audio 1;
#X msg 524 369 read \$1;
#X floatatom 549 502 15 0 0 0 - - -, f 15;
#X obj 536 416 unpack f s f f f f s f;
#X floatatom 910 690 15 0 0 0 - - -, f 15;
#X obj 915 667 / 44100;
#X obj 910 713 * 1000;
#X obj 766 261 declare -stdlib iemlib;
#X obj 520 344 inlet;
#X obj 914 743 outlet;
#X floatatom 537 465 15 0 0 0 - - -, f 15;
#X symbolatom 542 484 25 0 0 0 - - -, f 25;
#X obj 528 392 soundfile_info;
#X obj 704 418 soundfiler;
#X floatatom 733 509 15 0 0 0 - - -, f 15;
#X text 786 419 ??????;
#X connect 0 0 11 0;
#X connect 1 0 4 0;
#X connect 2 0 9 0;
#X connect 2 1 10 0;
#X connect 2 2 1 0;
#X connect 3 0 5 0;
#X connect 4 0 3 0;
#X connect 5 0 8 0;
#X connect 7 0 0 0;
#X connect 11 0 2 0;
#X connect 12 0 13 0;
#X restore 1371 441 pd load-audio;
#X obj 1194 240 t b b a a b;
#X obj 424 546 loadbang;
#X text 447 568 comment;
#X msg 925 612 bang;
#X text 938 627 comment;
#X msg 915 747 0 0;
#X obj 913 722 t b b;
#X msg 878 747 1 10;
#X obj 504 80 writesf~ 2;
#X obj 457 733 readsf~ 2;
#X obj 445 -100 zexy/limiter~ 50 1;
#X obj 475 20 *~;
#X obj 493 -43 *~;
#X obj 520 -74 z~ 64;
#X obj 490 -10 hip~ 5;
#X obj 488 -231 inlet~;
#X obj 649 974 *~;
#X obj 472 816 *~;
#X obj 608 1097 outlet~;
#X connect 0 0 120 0;
#X connect 0 0 10 0;
#X connect 1 0 2 0;
#X connect 1 0 21 0;
#X connect 1 0 121 0;
#X connect 1 0 127 0;
#X connect 2 0 13 0;
#X connect 2 0 118 0;
#X connect 3 0 1 0;
#X connect 4 0 3 0;
#X connect 5 0 4 0;
#X connect 5 1 3 0;
#X connect 6 0 79 0;
#X connect 6 0 118 0;
#X connect 7 0 20 0;
#X connect 7 0 78 0;
#X connect 7 0 118 0;
#X connect 8 0 56 0;
#X connect 8 0 118 0;
#X connect 9 0 22 0;
#X connect 10 0 9 0;
#X connect 11 0 103 0;
#X connect 12 0 103 0;
#X connect 14 0 15 0;
#X connect 14 0 24 1;
#X connect 15 0 63 0;
#X connect 15 0 103 0;
#X connect 16 0 64 0;
#X connect 17 0 57 0;
#X connect 19 0 8 0;
#X connect 20 0 82 0;
#X connect 21 0 45 0;
#X connect 22 0 2 1;
#X connect 23 0 103 0;
#X connect 24 0 23 0;
#X connect 25 0 24 0;
#X connect 25 0 27 0;
#X connect 25 0 102 0;
#X connect 26 0 25 1;
#X connect 27 0 11 0;
#X connect 27 0 44 0;
#X connect 27 0 49 0;
#X connect 28 0 36 0;
#X connect 28 0 67 0;
#X connect 28 0 29 0;
#X connect 29 0 28 1;
#X connect 30 0 31 0;
#X connect 30 1 28 0;
#X connect 31 0 32 0;
#X connect 32 0 35 0;
#X connect 33 0 30 0;
#X connect 34 0 33 0;
#X connect 35 0 71 0;
#X connect 35 0 90 0;
#X connect 36 0 31 1;
#X connect 37 0 19 0;
#X connect 37 1 19 1;
#X connect 38 0 24 0;
#X connect 38 1 24 1;
#X connect 39 0 42 1;
#X connect 40 0 50 0;
#X connect 41 0 40 0;
#X connect 42 0 41 0;
#X connect 43 0 40 0;
#X connect 44 0 42 0;
#X connect 44 1 43 0;
#X connect 45 0 13 0;
#X connect 46 0 62 0;
#X connect 47 0 46 0;
#X connect 48 0 87 0;
#X connect 49 0 87 0;
#X connect 50 0 47 0;
#X connect 51 0 40 0;
#X connect 51 0 87 0;
#X connect 52 0 103 0;
#X connect 53 0 52 0;
#X connect 54 0 55 0;
#X connect 55 0 103 0;
#X connect 56 0 17 0;
#X connect 57 0 6 0;
#X connect 58 0 60 0;
#X connect 59 0 61 0;
#X connect 60 0 12 0;
#X connect 61 0 14 0;
#X connect 62 0 48 0;
#X connect 63 0 16 0;
#X connect 64 0 51 0;
#X connect 64 0 11 0;
#X connect 65 0 90 0;
#X connect 68 0 33 1;
#X connect 69 0 34 0;
#X connect 70 0 94 0;
#X connect 71 0 86 0;
#X connect 72 0 73 0;
#X connect 73 0 71 1;
#X connect 74 0 7 0;
#X connect 75 0 74 0;
#X connect 76 0 24 0;
#X connect 76 0 27 0;
#X connect 76 0 113 0;
#X connect 77 0 24 0;
#X connect 77 0 44 0;
#X connect 78 0 39 1;
#X connect 79 0 51 0;
#X connect 79 0 39 0;
#X connect 80 0 26 0;
#X connect 81 0 50 1;
#X connect 83 0 38 0;
#X connect 83 0 14 1;
#X connect 83 0 110 0;
#X connect 84 0 5 0;
#X connect 85 0 71 0;
#X connect 86 0 18 0;
#X connect 86 0 19 1;
#X connect 86 0 14 1;
#X connect 86 0 37 0;
#X connect 87 0 45 1;
#X connect 87 0 126 1;
#X connect 88 0 17 1;
#X connect 88 0 16 1;
#X connect 89 0 14 1;
#X connect 89 0 66 0;
#X connect 90 0 89 0;
#X connect 91 0 92 0;
#X connect 92 0 90 1;
#X connect 93 0 90 0;
#X connect 94 0 28 1;
#X connect 95 0 96 1;
#X connect 96 0 25 0;
#X connect 98 0 102 1;
#X connect 99 0 98 0;
#X connect 100 0 101 0;
#X connect 101 0 102 1;
#X connect 102 0 97 0;
#X connect 103 0 108 0;
#X connect 104 0 108 1;
#X connect 105 0 104 0;
#X connect 106 0 107 0;
#X connect 107 0 108 1;
#X connect 108 0 119 0;
#X connect 109 0 42 1;
#X connect 110 0 54 0;
#X connect 110 1 53 0;
#X connect 110 2 53 1;
#X connect 110 3 109 0;
#X connect 110 4 104 0;
#X connect 111 0 104 0;
#X connect 113 0 116 0;
#X connect 115 0 87 0;
#X connect 116 0 117 0;
#X connect 116 1 115 0;
#X connect 117 0 87 0;
#X connect 119 0 21 1;
#X connect 119 1 127 1;
#X connect 119 2 96 0;
#X connect 120 0 9 1;
#X connect 120 0 122 1;
#X connect 121 0 118 1;
#X connect 121 0 128 0;
#X connect 122 0 124 0;
#X connect 123 0 122 0;
#X connect 124 0 121 1;
#X connect 125 0 120 1;
#X connect 125 0 123 0;
#X connect 126 0 128 0;
#X connect 127 0 126 0;
